{"glyphs":{"0":{"ha":721,"x_min":94,"x_max":694,"o":"m 422 671 q 336 650 374 671 q 272 590 299 629 q 228 498 244 551 q 206 378 211 444 q 231 163 192 243 q 367 83 271 83 q 517 163 463 83 q 585 378 572 243 q 585 498 592 444 q 559 590 579 551 q 505 650 539 629 q 422 671 471 671 m 432 765 q 558 737 506 765 q 641 658 610 708 q 683 535 672 607 q 686 378 694 464 q 653 220 678 292 q 588 97 629 149 q 490 16 547 44 q 358 -12 432 -12 q 233 16 285 -12 q 149 97 181 44 q 106 220 118 149 q 103 378 94 292 q 136 535 111 464 q 202 658 161 607 q 301 737 243 708 q 432 765 358 765 z "},"1":{"ha":414,"x_min":114,"x_max":357,"o":"m 357 751 l 288 0 l 189 0 l 247 619 q 114 572 182 576 l 125 679 q 203 703 165 686 q 279 751 240 719 l 357 751 z "},"2":{"ha":719,"x_min":81,"x_max":681,"o":"m 188 101 l 633 101 l 625 0 l 81 0 l 90 117 q 153 286 100 228 q 300 368 206 344 l 433 401 q 536 451 501 418 q 576 542 571 483 q 545 631 582 593 q 436 668 508 668 q 315 636 363 668 q 253 539 267 604 l 143 539 q 239 707 161 649 q 440 765 317 765 q 544 747 499 765 q 621 697 590 728 q 666 624 651 665 q 676 538 681 583 q 617 396 668 447 q 468 321 565 344 l 325 283 q 228 231 258 267 q 192 146 197 194 l 188 101 z "},"3":{"ha":703,"x_min":39,"x_max":640,"o":"m 394 765 q 501 748 454 765 q 579 699 547 731 q 626 626 611 668 q 636 533 640 583 q 589 420 629 464 q 482 349 549 376 q 595 258 557 324 q 625 104 633 192 q 594 -1 619 47 q 526 -85 568 -50 q 428 -139 485 -119 q 307 -158 372 -158 q 198 -141 249 -158 q 111 -89 147 -124 q 57 -1 75 -54 q 46 122 39 51 l 146 122 q 188 -19 139 26 q 317 -64 236 -64 q 394 -51 358 -64 q 458 -14 431 -37 q 503 41 486 10 q 524 110 521 72 q 519 179 528 146 q 488 238 510 213 q 430 278 467 263 q 340 293 393 293 l 264 293 l 272 381 l 326 381 q 472 417 417 381 q 533 525 526 453 q 501 630 540 589 q 388 671 463 671 q 278 640 325 671 q 211 542 232 610 l 107 542 q 148 645 121 603 q 213 715 175 688 q 297 753 250 742 q 394 765 343 765 z "},"4":{"ha":700,"x_min":35,"x_max":685,"o":"m 606 758 l 550 168 l 685 168 l 678 75 l 542 75 l 519 -146 l 422 -146 l 442 75 l 35 75 l 43 160 l 513 758 l 606 758 m 156 160 l 454 160 l 494 586 l 156 160 z "},"5":{"ha":711,"x_min":83,"x_max":668,"o":"m 668 757 l 657 657 l 317 657 l 272 413 q 331 422 300 419 q 390 425 361 425 q 589 351 521 425 q 646 147 657 276 q 612 25 639 81 q 541 -72 585 -31 q 441 -135 497 -112 q 321 -158 385 -158 q 226 -142 271 -158 q 149 -92 181 -125 q 100 -10 117 -58 q 89 103 83 39 l 186 103 q 219 -17 179 24 q 332 -58 258 -58 q 413 -43 375 -58 q 478 0 450 -28 q 524 65 506 28 q 544 147 542 103 q 508 285 554 235 q 363 336 463 336 l 161 336 l 235 757 l 668 757 z "},"6":{"ha":707,"x_min":85,"x_max":690,"o":"m 582 651 q 549 751 579 715 q 457 788 519 788 q 358 761 403 788 q 278 685 313 735 q 223 564 244 635 q 193 404 201 493 q 188 345 190 378 q 186 283 185 313 q 222 399 197 353 q 279 474 246 446 q 353 513 313 501 q 435 525 393 525 q 531 505 488 525 q 604 449 574 485 q 649 363 635 413 q 657 253 663 313 q 628 142 651 192 q 566 58 604 93 q 476 3 528 22 q 365 -17 425 -17 q 240 17 294 -17 q 149 109 185 50 q 99 248 114 168 q 93 421 85 328 q 135 617 104 531 q 213 765 165 704 q 325 857 261 825 q 464 889 389 889 q 631 824 571 889 q 689 651 690 758 l 582 651 m 407 429 q 341 416 372 429 q 285 380 310 403 q 244 326 260 357 q 225 257 229 294 q 261 131 218 176 q 374 85 304 85 q 496 131 444 85 q 554 257 547 176 q 520 383 563 338 q 407 429 478 429 z "},"7":{"ha":589,"x_min":56,"x_max":638,"o":"m 638 765 l 629 671 l 178 -136 l 56 -136 l 524 668 l 93 668 l 103 765 l 638 765 z "},"8":{"ha":769,"x_min":85,"x_max":738,"o":"m 468 889 q 581 870 531 889 q 667 819 632 851 q 720 742 703 788 q 732 646 738 697 q 715 577 729 610 q 676 517 700 544 q 619 472 653 490 q 543 446 585 453 l 564 438 q 688 353 647 401 q 721 218 729 304 q 691 124 717 167 q 622 49 665 81 q 518 1 579 18 q 382 -17 457 -17 q 256 2 313 -17 q 162 55 200 21 q 104 135 124 89 q 90 235 85 181 q 153 374 97 321 q 292 443 208 428 q 239 476 265 457 q 193 522 213 496 q 163 582 174 549 q 156 657 151 615 q 184 750 160 707 q 249 824 208 793 q 344 872 289 854 q 468 889 400 889 m 383 401 q 251 346 303 392 q 194 243 199 300 q 203 176 190 206 q 244 126 217 146 q 308 95 271 106 q 392 85 346 85 q 552 120 493 85 q 618 214 611 156 q 594 291 621 260 q 518 343 567 322 l 383 401 m 260 654 q 281 578 256 606 q 354 529 306 550 l 443 490 q 511 503 479 492 q 568 534 543 514 q 609 581 593 554 q 629 640 625 608 q 588 747 635 706 q 458 788 542 788 q 383 777 418 788 q 322 749 349 767 q 279 706 296 731 q 260 654 263 682 z "},"9":{"ha":715,"x_min":75,"x_max":682,"o":"m 401 765 q 531 730 476 765 q 621 634 586 694 q 669 491 656 574 q 672 315 682 408 q 633 117 661 204 q 559 -32 604 29 q 453 -126 514 -93 q 317 -158 392 -158 q 213 -138 258 -158 q 135 -81 167 -118 q 90 6 104 -44 q 81 115 75 56 l 183 115 q 213 -11 178 36 q 326 -58 249 -58 q 497 46 436 -58 q 572 331 557 150 q 576 385 575 358 q 578 442 578 413 q 493 275 558 333 q 338 217 428 217 q 240 238 285 217 q 165 294 196 258 q 118 381 133 331 q 110 493 103 432 q 140 603 115 553 q 202 689 164 653 q 291 745 240 725 q 401 765 342 765 m 392 668 q 268 620 317 668 q 213 493 219 572 q 245 363 206 410 q 358 315 285 315 q 428 329 396 315 q 483 367 460 343 q 522 423 507 390 q 542 493 538 456 q 508 620 549 572 q 392 668 467 668 z "}," ":{"ha":296,"x_min":0,"x_max":0,"o":""},",":{"ha":300,"x_min":50,"x_max":247,"o":"m 169 139 q 227 107 207 139 q 243 26 247 75 q 206 -74 238 -22 q 117 -157 174 -126 l 50 -117 q 113 -69 86 -96 q 151 -7 140 -43 q 107 15 124 -4 q 93 64 90 33 q 117 117 96 96 q 169 139 138 139 z "},".":{"ha":251,"x_min":56,"x_max":206,"o":"m 138 147 q 188 124 169 147 q 203 65 206 101 q 177 10 200 32 q 122 -12 154 -12 q 74 10 92 -12 q 60 65 56 32 q 85 124 63 101 q 138 147 107 147 z "},";":{"ha":292,"x_min":40,"x_max":281,"o":"m 160 139 q 217 107 197 139 q 233 26 238 75 q 196 -74 228 -22 q 107 -157 164 -126 l 40 -117 q 103 -69 76 -96 q 142 -7 131 -43 q 97 15 114 -4 q 83 64 81 33 q 107 117 86 96 q 160 139 128 139 m 213 669 q 263 647 244 669 q 278 588 281 624 q 252 532 275 554 q 197 510 229 510 q 149 532 167 510 q 135 588 131 554 q 160 647 138 624 q 213 669 182 669 z "},":":{"ha":274,"x_min":68,"x_max":268,"o":"m 197 669 q 249 647 229 669 q 264 589 268 624 q 238 533 261 556 q 182 510 214 510 q 135 533 153 510 q 121 589 118 556 q 145 647 124 624 q 197 669 167 669 m 149 147 q 199 124 181 147 q 215 65 218 101 q 189 10 213 32 q 133 -12 165 -12 q 85 10 103 -12 q 71 65 68 32 q 96 124 74 101 q 149 147 118 147 z "},"‘":{"ha":263,"x_min":108,"x_max":308,"o":"m 186 617 q 128 649 149 617 q 114 729 108 681 q 151 830 118 779 q 243 914 185 881 l 308 871 q 242 824 269 850 q 204 763 215 797 q 249 741 232 760 q 263 692 265 722 q 239 638 260 660 q 186 617 218 617 z "},"’":{"ha":263,"x_min":106,"x_max":307,"o":"m 228 914 q 285 881 264 914 q 300 800 307 849 q 263 699 296 750 q 171 617 229 649 l 106 658 q 210 768 188 699 q 165 789 182 771 q 151 839 149 807 q 175 892 154 869 q 228 914 196 914 z "},"'":{"ha":207,"x_min":132,"x_max":246,"o":"m 246 989 l 201 671 l 132 671 l 149 989 l 246 989 z "},"-":{"ha":475,"x_min":104,"x_max":450,"o":"m 450 472 l 442 376 l 104 376 l 113 472 l 450 472 z "},"–":{"ha":588,"x_min":104,"x_max":563,"o":"m 563 472 l 554 376 l 104 376 l 113 472 l 563 472 z "},"—":{"ha":903,"x_min":104,"x_max":879,"o":"m 879 472 l 871 376 l 104 376 l 113 472 l 879 472 z "},"!":{"ha":346,"x_min":107,"x_max":310,"o":"m 310 906 l 238 254 l 158 254 l 210 906 l 310 906 m 188 147 q 238 124 219 147 q 254 65 257 101 q 227 10 250 32 q 172 -12 204 -12 q 125 10 143 -12 q 110 65 107 32 q 135 124 113 101 q 188 147 157 147 z "},"?":{"ha":626,"x_min":106,"x_max":633,"o":"m 397 899 q 500 882 456 899 q 574 836 544 865 q 619 769 604 807 q 632 688 633 731 q 629 659 631 672 q 625 632 628 646 q 601 573 617 599 q 560 525 585 547 q 504 481 536 503 q 432 429 472 458 q 369 367 388 399 q 346 286 350 336 l 342 238 l 251 238 l 257 294 q 270 371 261 339 q 296 428 279 403 q 338 474 313 453 q 401 515 364 494 q 459 551 436 535 q 497 585 482 568 q 519 623 511 603 q 531 671 526 643 q 500 765 536 726 q 392 803 464 803 q 272 769 317 803 q 208 674 226 735 l 106 674 q 201 838 125 778 q 397 899 276 899 m 293 144 q 344 122 325 144 q 361 65 364 99 q 334 10 358 32 q 276 -12 310 -12 q 226 10 244 -12 q 211 65 208 32 q 237 122 214 99 q 293 144 260 144 z "},"/":{"ha":510,"x_min":67,"x_max":589,"o":"m 486 1018 l 589 1018 l 167 -103 l 67 -103 l 486 1018 z "},"\\":{"ha":510,"x_min":92,"x_max":614,"o":"m 92 1018 l 192 1018 l 614 -103 l 511 -103 l 92 1018 z "},"+":{"ha":750,"x_min":97,"x_max":718,"o":"m 489 717 l 460 407 l 718 407 l 710 311 l 450 311 l 422 0 l 326 0 l 356 311 l 97 311 l 106 407 l 365 407 l 393 717 l 489 717 z "},"−":{"ha":607,"x_min":128,"x_max":546,"o":"m 546 403 l 539 307 l 128 307 l 135 403 l 546 403 z "},"=":{"ha":607,"x_min":114,"x_max":560,"o":"m 533 268 l 525 172 l 114 172 l 122 268 l 533 268 m 560 547 l 551 451 l 142 451 l 149 547 l 560 547 z "},"(":{"ha":393,"x_min":96,"x_max":394,"o":"m 394 833 q 263 603 307 719 q 207 361 218 488 q 217 120 194 236 q 307 -108 239 4 l 229 -157 q 126 93 157 -36 q 110 361 96 222 q 177 630 122 500 q 328 882 232 760 l 394 833 z "},")":{"ha":388,"x_min":65,"x_max":365,"o":"m 231 882 q 334 630 303 760 q 351 361 365 500 q 131 -157 324 85 l 65 -108 q 197 120 153 4 q 253 361 240 236 q 242 603 264 488 q 154 833 221 719 l 231 882 z "},"[":{"ha":418,"x_min":121,"x_max":485,"o":"m 239 1025 l 485 1025 l 475 931 l 325 931 l 225 -46 l 375 -46 l 367 -140 l 121 -140 l 239 1025 z "},"]":{"ha":399,"x_min":-8,"x_max":361,"o":"m 238 -140 l -8 -140 l 1 -46 l 153 -46 l 256 931 l 104 931 l 114 1025 l 361 1025 l 238 -140 z "},"_":{"ha":914,"x_min":51,"x_max":839,"o":"m 63 -67 l 839 -67 l 829 -162 l 51 -162 l 63 -67 z "},"@":{"ha":1144,"x_min":74,"x_max":1121,"o":"m 711 333 q 703 410 717 382 q 650 438 690 438 q 591 422 622 438 q 532 378 560 407 q 484 310 504 350 q 460 221 464 271 q 481 113 453 153 q 557 72 508 72 q 635 106 603 72 q 699 197 667 139 l 711 333 m 694 803 q 876 768 794 803 q 1013 672 958 733 q 1094 527 1068 611 q 1111 344 1121 443 q 1077 198 1104 264 q 1009 85 1050 132 q 918 13 968 39 q 815 -12 868 -12 q 692 97 704 -12 q 628 18 665 49 q 531 -12 590 -12 q 461 4 494 -12 q 403 51 428 21 q 366 124 379 82 q 358 218 353 167 q 392 342 364 285 q 463 440 421 399 q 556 506 504 482 q 661 531 608 531 q 775 481 733 531 q 806 335 817 432 l 788 142 q 831 72 781 72 q 885 90 856 72 q 940 142 914 108 q 985 226 965 176 q 1010 339 1004 275 q 999 488 1018 419 q 938 604 981 556 q 832 681 896 653 q 686 708 768 708 q 506 673 592 708 q 351 575 419 638 q 238 426 282 513 q 183 239 193 340 q 201 47 174 131 q 290 -94 229 -36 q 440 -181 350 -151 q 646 -211 531 -211 l 636 -301 q 399 -264 507 -301 q 218 -156 292 -226 q 109 19 144 -85 q 86 256 74 122 q 150 474 97 374 q 285 648 203 575 q 472 762 367 721 q 694 803 578 803 z "},"\"":{"ha":394,"x_min":111,"x_max":449,"o":"m 232 947 l 189 639 l 111 639 l 124 947 l 232 947 m 449 947 l 406 639 l 326 639 l 340 947 l 449 947 z "},"#":{"ha":792,"x_min":88,"x_max":800,"o":"m 499 235 l 306 235 l 269 44 l 175 44 l 211 235 l 88 235 l 103 313 l 225 313 l 272 557 l 149 557 l 163 636 l 288 636 l 324 825 l 418 825 l 382 636 l 574 636 l 610 825 l 706 825 l 669 636 l 800 636 l 783 557 l 654 557 l 607 313 l 739 313 l 722 235 l 592 235 l 556 44 l 463 44 l 499 235 m 319 313 l 513 313 l 558 557 l 367 557 l 319 313 z "},"$":{"ha":799,"x_min":113,"x_max":740,"o":"m 556 461 q 633 426 599 446 q 690 379 667 407 q 722 315 713 351 q 728 232 732 279 q 701 143 724 185 q 640 69 678 101 q 551 15 603 36 q 438 -10 500 -6 l 425 -146 l 344 -146 l 357 -10 q 258 15 304 -4 q 178 69 211 35 q 129 154 146 104 q 119 271 113 204 l 214 271 q 247 138 207 188 q 365 78 286 89 l 397 414 l 356 431 q 212 520 256 468 q 176 660 168 572 q 202 747 181 707 q 259 815 224 786 q 341 863 294 844 q 442 886 388 881 l 454 1015 l 533 1015 l 521 888 q 678 822 619 879 q 740 656 738 764 l 644 656 q 609 756 642 718 q 513 801 576 794 l 483 485 l 556 461 m 626 229 q 525 368 636 328 l 475 386 l 446 76 q 574 131 526 86 q 626 229 621 175 m 276 658 q 296 578 271 607 q 374 528 321 549 l 407 514 l 433 799 q 322 749 363 788 q 276 658 281 711 z "},"%":{"ha":914,"x_min":136,"x_max":863,"o":"m 321 893 q 381 880 353 893 q 428 842 408 867 q 458 779 449 817 q 463 692 468 742 q 442 604 458 642 q 401 542 425 567 q 346 504 376 517 q 283 492 315 492 q 224 504 251 492 q 176 542 196 517 q 146 604 156 567 q 140 692 136 642 q 163 779 146 742 q 204 842 179 817 q 259 880 229 867 q 321 893 289 893 m 313 815 q 253 785 276 815 q 224 692 229 756 q 235 598 217 626 q 289 569 253 569 q 349 598 325 569 q 381 692 374 626 q 367 785 386 756 q 313 815 347 815 m 751 876 l 858 876 l 246 0 l 139 0 l 751 876 m 714 385 q 774 372 746 385 q 823 335 803 360 q 853 272 843 310 q 857 185 863 235 q 835 97 853 135 q 794 35 818 60 q 739 -3 769 10 q 676 -17 708 -17 q 617 -3 644 -17 q 569 35 589 10 q 539 97 549 60 q 535 185 529 135 q 597 334 544 283 q 714 385 650 385 m 707 308 q 647 278 671 308 q 617 185 624 249 q 628 92 610 121 q 683 63 647 63 q 742 92 718 63 q 772 185 767 121 q 760 278 779 249 q 707 308 742 308 z "},"&":{"ha":1076,"x_min":111,"x_max":1051,"o":"m 1051 199 q 992 43 1038 99 q 867 -12 946 -12 q 777 8 818 -12 q 692 82 736 29 l 667 110 q 535 19 606 51 q 382 -12 465 -12 q 269 6 319 -12 q 183 58 218 25 q 129 137 147 92 q 117 236 111 182 q 184 383 125 329 q 354 457 243 436 q 286 567 308 514 q 271 682 264 619 q 296 764 275 726 q 350 829 317 801 q 428 873 383 857 q 525 889 472 889 q 613 872 574 889 q 677 827 651 856 q 716 761 703 799 q 725 681 729 724 q 668 544 718 606 q 508 432 618 483 l 675 246 q 760 368 719 300 q 835 515 800 436 l 903 472 q 822 315 864 389 q 732 182 781 242 l 778 132 q 823 92 804 103 q 869 81 842 81 q 927 108 901 81 q 961 199 953 136 l 1051 199 m 215 236 q 220 176 211 204 q 251 126 229 147 q 306 92 272 104 q 385 79 339 79 q 501 104 446 79 q 608 175 557 129 l 411 393 q 267 338 314 378 q 215 236 221 299 m 628 681 q 601 765 632 731 q 518 799 571 799 q 415 760 453 799 q 372 669 378 722 q 382 594 369 629 q 426 524 394 560 l 457 489 q 536 534 504 511 q 588 581 568 557 q 616 629 607 604 q 628 681 625 654 z "},"*":{"ha":514,"x_min":142,"x_max":521,"o":"m 282 718 l 142 774 l 181 851 l 304 778 l 308 953 l 388 953 l 358 778 l 497 851 l 521 774 l 371 718 l 472 596 l 410 540 l 324 683 l 210 540 l 158 596 l 282 718 z "},"<":{"ha":575,"x_min":86,"x_max":581,"o":"m 581 710 l 194 425 l 526 143 l 453 53 l 86 375 l 94 475 l 525 799 l 581 710 z "},">":{"ha":575,"x_min":71,"x_max":568,"o":"m 201 801 l 568 479 l 558 375 l 131 53 l 71 143 l 457 426 l 126 714 l 201 801 z "},"^":{"ha":572,"x_min":57,"x_max":585,"o":"m 57 336 l 325 817 l 408 817 l 585 336 l 468 336 l 354 676 l 175 336 l 57 336 z "},"{":{"ha":438,"x_min":150,"x_max":546,"o":"m 429 -194 q 306 -170 354 -194 q 231 -102 257 -146 q 196 2 204 -58 q 194 133 188 63 l 206 261 q 204 345 213 321 q 172 369 196 369 l 150 369 l 161 482 l 183 482 q 219 506 207 482 q 236 590 231 531 l 249 718 q 275 849 256 789 q 330 953 294 910 q 418 1022 365 997 q 546 1047 471 1047 l 538 954 q 401 897 446 954 q 347 726 357 839 l 333 588 q 303 484 326 522 q 249 429 281 446 l 249 422 q 293 368 278 407 q 303 265 308 329 l 289 124 q 313 -46 279 11 q 438 -103 346 -103 l 429 -194 z "},"|":{"ha":344,"x_min":108,"x_max":319,"o":"m 222 1046 l 319 1046 l 204 -169 l 108 -169 l 222 1046 z "},"}":{"ha":424,"x_min":-43,"x_max":353,"o":"m 74 1046 q 197 1022 149 1046 q 272 953 246 997 q 306 849 299 910 q 308 718 314 789 l 297 590 q 299 506 290 531 q 331 482 307 482 l 353 482 l 342 369 l 319 369 q 284 345 296 369 q 267 261 272 321 l 254 133 q 228 2 247 63 q 173 -102 208 -58 q 85 -171 138 -146 q -43 -196 32 -196 l -35 -103 q 101 -45 57 -103 q 156 125 146 13 l 169 264 q 199 367 176 329 q 254 422 222 406 l 254 429 q 210 483 225 444 q 200 586 194 522 l 214 728 q 190 897 224 840 q 65 954 157 954 l 74 1046 z "},"~":{"ha":653,"x_min":99,"x_max":629,"o":"m 153 306 l 99 340 q 165 458 126 417 q 251 499 203 499 q 301 490 275 499 q 375 460 328 482 q 445 431 422 438 q 486 424 468 424 q 533 444 510 424 q 576 503 557 464 l 629 461 q 557 348 597 385 q 469 311 517 311 q 422 320 450 311 q 349 350 393 329 q 278 381 300 372 q 238 389 256 389 q 195 370 217 389 q 153 306 174 351 z "},"£":{"ha":701,"x_min":35,"x_max":682,"o":"m 43 89 l 79 89 q 151 120 128 89 q 181 214 174 151 l 194 363 l 82 363 l 90 444 l 203 444 l 219 608 q 294 816 231 743 q 471 889 357 889 q 608 837 557 889 q 664 685 660 785 l 569 685 q 537 766 567 739 q 463 793 507 793 q 363 749 403 793 q 314 608 322 704 l 297 444 l 531 444 l 522 363 l 289 363 l 275 219 q 259 140 271 172 q 221 89 247 108 l 443 89 q 535 117 506 89 q 578 206 565 146 l 682 206 q 653 119 671 157 q 606 55 635 82 q 535 14 576 28 q 435 0 493 0 l 35 0 l 43 89 z "},"ʼ":{"ha":239,"x_min":101,"x_max":314,"o":"m 149 799 q 174 852 151 831 q 231 874 197 874 q 292 841 271 874 q 310 761 314 808 q 271 660 304 711 q 179 576 238 608 l 101 619 q 169 664 142 639 q 208 725 197 689 q 163 748 181 729 q 149 799 146 767 z "},"₨":{"ha":729,"x_min":144,"x_max":714,"o":"m 196 876 l 714 876 l 707 807 l 482 807 q 542 746 521 782 q 567 665 563 710 l 693 665 l 688 594 l 564 594 q 537 504 557 546 q 482 430 517 463 q 397 376 447 397 q 281 347 347 354 l 589 0 l 449 0 l 144 344 l 153 414 l 229 414 q 393 465 336 414 q 463 594 450 517 l 168 594 l 176 665 l 465 665 q 409 767 457 728 q 267 807 361 807 l 189 807 l 196 876 z "},"௦":{"ha":671,"x_min":92,"x_max":654,"o":"m 397 608 q 258 538 308 608 q 197 346 208 467 q 223 154 186 225 q 349 83 260 83 q 488 154 438 83 q 550 346 538 225 q 523 538 560 467 q 397 608 486 608 m 407 706 q 528 679 479 706 q 606 605 578 653 q 644 491 635 557 q 647 346 654 425 q 617 201 639 267 q 557 88 594 135 q 465 14 519 40 q 339 -12 411 -12 q 219 14 268 -12 q 140 88 169 40 q 101 201 111 135 q 99 346 92 267 q 128 491 106 425 q 188 605 150 557 q 281 679 226 653 q 407 706 336 706 z "},"௧":{"ha":963,"x_min":76,"x_max":931,"o":"m 336 389 l 550 389 l 571 604 l 356 604 l 336 389 m 272 315 q 204 295 232 315 q 176 226 176 275 q 192 167 176 194 q 235 119 207 139 q 300 88 263 99 q 382 76 338 76 q 492 117 456 76 q 536 242 528 158 l 544 315 l 272 315 m 857 700 l 846 604 l 665 604 l 646 389 l 747 389 q 882 344 833 389 q 931 226 931 299 q 883 83 931 144 q 751 -12 835 21 l 697 69 q 791 123 751 85 q 831 224 831 161 q 805 291 831 267 q 731 315 779 315 l 639 315 l 632 240 q 382 -12 607 -12 q 258 8 314 -12 q 161 62 201 28 q 99 140 121 96 q 76 231 76 183 q 119 345 76 301 q 232 389 161 389 l 246 389 l 276 700 l 857 700 z "},"௨":{"ha":1024,"x_min":101,"x_max":1017,"o":"m 422 713 q 531 692 482 713 q 613 636 579 672 q 663 549 647 600 q 674 439 679 499 q 581 219 660 311 q 358 92 501 128 l 1017 92 l 1010 0 l 104 0 l 101 104 q 200 113 151 104 q 292 137 249 122 q 373 172 336 151 q 438 213 410 192 q 383 191 410 197 q 332 185 357 185 q 245 206 286 189 q 175 255 204 224 q 131 331 146 286 q 122 435 117 376 q 153 548 128 497 q 219 635 179 599 q 312 692 260 672 q 422 713 364 713 m 413 617 q 339 602 372 617 q 281 563 306 588 q 240 503 256 538 q 221 429 225 468 q 228 345 217 381 q 261 286 239 310 q 314 251 283 263 q 378 239 344 239 q 448 251 415 239 q 507 286 481 263 q 550 345 533 310 q 571 428 567 381 q 538 563 579 508 q 413 617 496 617 z "},"௩":{"ha":968,"x_min":111,"x_max":963,"o":"m 771 700 l 761 604 l 614 604 l 594 399 l 694 399 q 831 352 790 399 q 864 235 871 306 q 838 155 860 190 q 774 96 817 119 l 963 96 l 953 0 l 483 0 l 492 96 l 608 96 q 719 131 682 96 q 763 218 757 167 q 745 293 767 263 q 665 324 724 324 l 494 324 l 519 604 l 263 604 l 207 0 l 111 0 l 176 700 l 771 700 z "},"௫":{"ha":1024,"x_min":76,"x_max":1008,"o":"m 1008 700 l 969 315 l 639 315 l 632 240 q 382 -12 607 -12 q 258 8 314 -12 q 161 62 201 28 q 99 140 121 96 q 76 231 76 183 q 117 343 76 297 q 232 389 157 389 l 246 389 l 276 700 l 786 700 l 775 604 l 665 604 l 646 389 l 882 389 l 913 700 l 1008 700 m 272 315 q 204 296 232 315 q 176 225 176 276 q 192 166 176 193 q 235 119 208 139 q 300 88 263 99 q 382 76 338 76 q 492 117 456 76 q 536 242 529 158 l 544 315 l 272 315 m 336 389 l 550 389 l 571 604 l 356 604 l 336 389 z "},"௬":{"ha":1303,"x_min":83,"x_max":1267,"o":"m 1103 700 l 1093 604 l 944 604 l 915 288 q 988 380 943 350 q 1090 410 1033 410 q 1163 391 1129 410 q 1221 337 1197 372 q 1256 252 1244 301 q 1261 140 1267 203 q 1202 -63 1250 28 q 1076 -217 1154 -154 q 896 -315 999 -281 q 674 -349 793 -349 q 420 -309 533 -349 q 231 -194 307 -269 q 119 -10 156 -119 q 97 240 83 100 q 151 480 108 364 q 258 710 193 596 l 343 682 q 244 459 281 564 q 197 240 208 354 q 214 28 186 119 q 305 -125 242 -64 q 463 -217 368 -186 q 682 -249 558 -249 q 855 -223 772 -249 q 1002 -148 938 -197 q 1109 -26 1067 -99 q 1160 140 1151 46 q 1141 272 1168 225 q 1061 318 1114 318 q 1004 302 1032 318 q 954 257 976 286 q 917 188 932 228 q 896 99 901 147 l 889 0 l 794 0 l 851 604 l 593 604 l 538 0 l 443 0 l 508 700 l 1103 700 z "},"௭":{"ha":1332,"x_min":72,"x_max":1321,"o":"m 857 700 l 846 604 l 665 604 l 646 389 l 1321 389 l 1314 311 l 1196 311 l 1167 0 l 1072 0 l 1100 311 l 906 311 l 876 0 l 782 0 l 811 311 l 639 311 l 632 240 q 382 -12 607 -12 q 253 10 311 -12 q 153 68 194 32 q 92 152 113 104 q 78 250 72 200 q 126 353 85 317 q 233 389 168 389 l 246 389 l 276 700 l 857 700 m 272 315 q 203 296 226 315 q 176 238 181 276 q 188 174 174 203 q 229 123 201 144 q 297 89 257 101 q 382 76 336 76 q 492 117 456 76 q 536 242 529 158 l 544 315 l 272 315 m 336 389 l 550 389 l 571 604 l 356 604 l 336 389 z "},"௪":{"ha":992,"x_min":88,"x_max":1032,"o":"m 1032 700 l 1022 604 l 876 604 l 821 0 l 726 0 l 782 604 l 596 604 q 443 581 514 604 q 319 515 372 557 q 233 414 265 472 q 193 288 200 356 q 213 153 185 201 q 290 85 242 104 q 283 154 283 118 q 289 226 282 190 q 314 297 297 264 q 356 356 331 331 q 413 395 381 381 q 483 410 446 410 q 603 356 563 410 q 635 219 643 303 q 608 128 631 171 q 550 55 586 86 q 467 6 514 24 q 364 -12 419 -12 q 255 10 307 -12 q 165 74 203 33 q 108 174 128 115 q 94 303 88 232 q 143 460 103 388 q 250 585 183 532 q 407 669 317 639 q 606 700 497 700 l 1032 700 m 464 318 q 383 276 415 317 q 342 181 351 235 q 339 126 339 153 q 344 75 339 99 q 371 71 358 71 q 420 80 393 71 q 472 107 447 89 q 514 153 496 125 q 536 219 532 181 q 522 290 539 261 q 464 318 504 318 z "},"௮":{"ha":1119,"x_min":58,"x_max":1065,"o":"m 517 713 q 647 683 592 713 q 738 606 703 654 q 789 497 774 558 q 799 371 804 435 l 939 371 l 969 704 l 1065 704 l 1000 0 l 906 0 l 932 299 l 789 299 q 745 179 775 236 q 667 80 715 122 q 553 13 619 38 q 399 -12 486 -12 q 251 9 315 -12 q 142 66 186 31 q 78 147 99 101 q 63 242 58 193 q 113 340 68 308 q 225 371 157 371 l 326 371 q 277 428 294 392 q 264 513 260 464 q 289 592 268 556 q 343 656 310 629 q 421 698 376 683 q 517 713 465 713 m 407 83 q 595 141 525 83 q 689 299 665 199 l 243 299 q 185 281 206 299 q 163 231 165 263 q 174 178 160 204 q 218 131 188 151 q 296 97 249 110 q 407 83 343 83 m 361 492 q 383 410 357 446 q 471 371 410 374 l 700 371 q 692 467 704 422 q 655 546 679 513 q 594 598 631 579 q 514 617 558 617 q 406 582 447 617 q 361 492 365 547 z "},"௯":{"ha":1497,"x_min":72,"x_max":1460,"o":"m 829 700 l 818 604 l 665 604 l 646 389 l 810 389 q 870 494 833 446 q 954 576 907 542 q 1058 629 1001 610 q 1176 649 1114 649 q 1311 619 1256 649 q 1400 539 1367 589 q 1447 424 1433 489 q 1453 288 1460 358 q 1419 136 1446 213 q 1351 -11 1393 60 l 1265 39 q 1330 168 1308 103 q 1356 292 1351 233 q 1352 393 1361 346 q 1319 476 1343 440 q 1256 532 1296 511 q 1158 553 1215 553 q 1010 506 1076 553 q 900 389 943 460 l 1001 389 q 1086 374 1049 389 q 1148 333 1124 358 q 1183 272 1172 307 q 1190 196 1194 236 q 1169 115 1186 153 q 1126 49 1153 76 q 1061 4 1099 21 q 976 -12 1024 -12 q 892 6 931 -12 q 826 60 853 25 q 787 146 800 96 q 779 258 774 196 q 783 286 781 272 q 789 315 786 300 l 639 315 l 632 240 q 382 -12 607 -12 q 253 10 311 -12 q 153 68 194 32 q 92 152 113 104 q 78 250 72 200 q 126 353 85 317 q 233 389 168 389 l 246 389 l 276 700 l 829 700 m 272 315 q 176 238 185 315 q 188 174 174 203 q 229 123 201 144 q 297 89 257 101 q 382 76 336 76 q 492 117 456 76 q 536 242 529 158 l 544 315 l 272 315 m 878 315 q 873 285 875 300 q 868 253 871 269 q 892 118 860 161 q 983 75 925 75 q 1067 108 1032 75 q 1108 200 1101 142 q 1083 285 1114 254 q 990 315 1053 315 l 878 315 m 336 389 l 550 389 l 571 604 l 356 604 l 336 389 z "},"௰":{"ha":1074,"x_min":124,"x_max":1067,"o":"m 600 1017 q 813 976 722 1017 q 961 862 904 935 q 1042 688 1018 789 q 1056 467 1067 588 q 1013 276 1044 364 q 932 125 981 189 q 821 24 883 61 q 688 -12 758 -12 q 559 23 610 -12 q 492 129 508 58 q 424 26 468 64 q 314 -12 381 -12 q 172 54 219 -12 q 136 247 124 121 l 179 700 l 274 700 l 232 254 q 253 125 224 167 q 339 83 283 83 q 435 133 399 85 q 482 276 472 182 l 522 700 l 615 700 l 575 250 q 597 122 565 161 q 694 83 628 83 q 783 113 739 83 q 862 192 826 142 q 922 313 897 243 q 954 467 946 383 q 881 802 974 682 q 593 922 788 922 q 508 915 551 922 q 413 892 465 908 l 378 994 q 494 1012 440 1007 q 600 1017 547 1017 z "},"௱":{"ha":1114,"x_min":114,"x_max":1151,"o":"m 1151 700 l 1143 604 l 999 604 l 943 0 l 847 0 l 904 604 l 646 604 l 590 0 l 494 0 l 532 401 q 502 565 542 513 q 403 617 463 617 q 301 574 343 617 q 250 440 258 531 l 208 0 l 114 0 l 157 465 q 231 650 168 588 q 385 713 294 713 q 488 676 447 713 q 549 574 529 640 l 561 700 l 1151 700 z "},"௲":{"ha":1376,"x_min":72,"x_max":1346,"o":"m 857 700 l 846 604 l 665 604 l 646 389 l 1268 389 l 1263 311 l 1121 311 l 1107 164 l 1138 164 q 1292 108 1239 164 q 1336 -50 1346 53 q 1305 -161 1331 -110 q 1233 -251 1279 -212 q 1122 -311 1188 -289 q 969 -333 1056 -333 l 756 -333 q 704 -378 708 -333 q 732 -443 700 -410 l 667 -479 q 628 -425 643 -456 q 617 -361 614 -394 q 651 -287 622 -314 q 728 -260 681 -260 l 978 -260 q 1167 -201 1103 -260 q 1240 -50 1232 -142 q 1221 53 1247 15 q 1129 90 1194 90 l 1099 90 l 1094 36 q 1037 -103 1088 -50 q 890 -156 986 -156 q 801 -140 844 -156 q 725 -97 757 -125 q 676 -32 693 -69 q 663 51 658 6 q 705 137 667 110 q 796 164 743 164 l 1013 164 l 1025 311 l 639 311 l 632 240 q 382 -12 607 -12 q 253 10 311 -12 q 153 68 194 32 q 92 152 113 104 q 78 250 72 200 q 126 353 85 317 q 233 389 168 389 l 246 389 l 276 700 l 857 700 m 272 315 q 203 296 226 315 q 176 238 181 276 q 188 174 174 203 q 229 123 201 144 q 297 89 257 101 q 382 76 336 76 q 492 117 456 76 q 536 242 529 158 l 544 315 l 272 315 m 342 389 l 550 389 l 571 604 l 361 604 l 342 389 m 806 90 q 762 75 778 90 q 743 33 746 60 q 752 -12 740 8 q 784 -49 764 -33 q 831 -74 804 -65 q 885 -83 857 -83 q 969 -51 943 -83 q 1000 36 994 -19 l 1004 90 l 806 90 z "},"்":{"ha":239,"x_min":139,"x_max":275,"o":"m 142 950 q 167 1003 146 982 q 213 1024 188 1024 q 258 1003 240 1024 q 272 950 275 982 q 249 901 269 922 q 200 881 228 881 q 156 901 174 881 q 142 950 139 922 z "},"ஂ":{"ha":390,"x_min":132,"x_max":444,"o":"m 300 1125 q 404 1083 364 1125 q 439 968 444 1042 q 421 901 436 931 q 383 851 406 872 q 331 820 360 831 q 271 810 301 810 q 213 820 239 810 q 169 851 188 831 q 141 901 150 872 q 135 968 132 931 q 190 1084 142 1043 q 300 1125 238 1125 m 293 1049 q 244 1026 263 1049 q 222 968 226 1004 q 233 909 219 931 q 278 888 246 888 q 328 909 310 888 q 351 968 347 931 q 340 1026 354 1004 q 293 1049 325 1049 z "},"ஃ":{"ha":943,"x_min":64,"x_max":918,"o":"m 556 900 q 626 885 593 900 q 683 842 660 871 q 719 773 707 814 q 725 681 731 732 q 701 589 721 629 q 653 520 682 549 q 588 477 624 492 q 514 463 551 463 q 442 477 475 463 q 385 520 408 492 q 350 589 361 549 q 343 681 339 629 q 368 773 349 732 q 417 842 388 814 q 482 885 446 871 q 556 900 518 900 m 279 424 q 350 409 317 424 q 408 367 383 394 q 444 299 432 339 q 450 207 456 258 q 426 114 446 154 q 378 45 407 74 q 313 2 349 17 q 239 -12 276 -12 q 168 2 201 -12 q 111 45 135 17 q 76 114 88 74 q 68 207 64 154 q 93 299 74 258 q 141 367 113 339 q 206 409 169 394 q 279 424 242 424 m 742 424 q 813 409 779 424 q 870 367 846 394 q 906 299 894 339 q 913 207 918 258 q 889 114 908 154 q 841 45 869 74 q 776 2 813 17 q 701 -12 740 -12 q 629 2 663 -12 q 572 45 596 17 q 537 114 549 74 q 529 207 525 154 q 554 299 535 258 q 603 367 574 339 q 668 409 632 394 q 742 424 704 424 m 272 340 q 199 306 228 340 q 163 207 169 271 q 180 107 157 142 q 247 72 203 72 q 319 107 289 72 q 356 207 349 142 q 339 306 363 271 q 272 340 315 340 m 736 340 q 663 306 692 340 q 626 207 633 271 q 644 107 621 142 q 710 72 667 72 q 783 107 754 72 q 819 207 813 142 q 803 306 826 271 q 736 340 779 340 m 549 814 q 475 780 504 814 q 439 681 446 746 q 456 582 432 617 q 522 547 479 547 q 595 582 565 547 q 631 681 625 617 q 614 780 638 746 q 549 814 590 814 z "},"அ":{"ha":1167,"x_min":49,"x_max":1113,"o":"m 558 713 q 680 683 625 713 q 774 606 735 654 q 832 496 813 558 q 847 367 851 433 l 988 367 l 1018 704 l 1113 704 l 1046 0 l 951 0 l 979 294 l 836 294 q 788 170 821 226 q 703 73 754 114 q 585 10 653 32 q 432 -12 517 -12 q 263 11 336 -12 q 142 72 190 35 q 72 155 94 110 q 53 244 49 200 q 101 337 58 307 q 206 367 143 367 l 300 367 q 274 419 282 389 q 268 483 265 449 q 301 578 274 536 q 369 651 328 621 q 459 697 410 681 q 558 713 508 713 m 439 76 q 641 133 557 76 q 754 294 725 190 l 231 294 q 174 279 197 294 q 147 228 151 264 q 161 172 144 199 q 213 124 178 144 q 305 90 249 103 q 439 76 361 76 m 546 506 q 547 563 549 535 q 536 621 546 592 q 468 606 500 618 q 411 574 436 593 q 370 528 386 554 q 351 471 354 501 q 367 398 347 426 q 421 367 386 369 l 433 367 q 510 408 479 369 q 546 506 540 447 m 610 494 q 592 419 607 451 q 557 367 576 386 l 767 367 q 758 460 771 417 q 722 536 746 503 q 663 591 697 569 q 589 619 628 613 q 606 560 600 592 q 610 494 613 529 z "},"ஆ":{"ha":1463,"x_min":49,"x_max":1425,"o":"m 558 713 q 680 683 625 713 q 774 606 735 654 q 832 496 813 558 q 847 367 851 433 l 988 367 l 1018 704 l 1113 704 l 1074 288 q 1147 380 1103 350 q 1246 410 1192 410 q 1324 390 1289 410 q 1381 337 1358 371 q 1415 256 1404 303 q 1421 153 1425 208 q 1372 -7 1413 64 q 1267 -128 1331 -78 q 1119 -204 1203 -178 q 942 -231 1036 -231 q 817 -219 885 -231 q 696 -183 750 -207 l 706 -71 q 831 -119 764 -103 q 951 -135 897 -135 q 1091 -114 1026 -135 q 1205 -56 1156 -93 q 1284 35 1254 -18 q 1319 153 1314 88 q 1297 276 1328 233 q 1218 318 1267 318 q 1161 302 1189 318 q 1112 257 1133 286 q 1075 188 1090 228 q 1056 99 1060 147 l 1046 0 l 951 0 l 979 294 l 836 294 q 788 170 821 226 q 703 73 754 114 q 585 10 653 32 q 432 -12 517 -12 q 263 11 336 -12 q 142 72 190 35 q 72 155 94 110 q 53 244 49 200 q 101 337 58 307 q 206 367 143 367 l 300 367 q 274 419 282 389 q 268 483 265 449 q 301 578 274 536 q 369 651 328 621 q 459 697 410 681 q 558 713 508 713 m 439 76 q 641 133 557 76 q 754 294 725 190 l 231 294 q 174 279 197 294 q 147 228 151 264 q 161 172 144 199 q 213 124 178 144 q 305 90 249 103 q 439 76 361 76 m 546 506 q 547 563 549 535 q 536 621 546 592 q 468 606 500 618 q 411 574 436 593 q 370 528 386 554 q 351 471 354 501 q 367 398 347 426 q 421 367 386 369 l 433 367 q 510 408 479 369 q 546 506 540 447 m 610 494 q 592 419 607 451 q 557 367 576 386 l 767 367 q 758 458 771 415 q 722 535 746 501 q 663 590 697 568 q 590 619 629 613 q 607 560 601 592 q 610 494 613 529 z "},"இ":{"ha":1272,"x_min":40,"x_max":1219,"o":"m 744 1014 q 964 963 871 1014 q 1115 824 1057 911 q 1197 619 1174 736 q 1207 372 1219 503 l 1190 183 l 1108 183 l 1125 364 q 1118 586 1136 485 q 1052 761 1100 688 q 925 876 1004 835 q 736 918 846 918 q 541 882 629 918 q 388 781 453 846 q 282 629 322 717 q 232 439 242 542 q 244 263 222 343 q 307 110 265 182 q 454 153 372 138 q 621 169 536 169 q 733 162 681 169 q 833 139 785 154 q 881 315 872 225 q 877 422 886 371 q 849 516 868 474 q 799 589 829 558 q 729 632 768 619 q 747 562 740 600 q 750 488 753 524 q 731 415 746 450 q 692 354 715 381 q 636 312 668 328 q 567 296 604 296 q 503 310 532 296 q 453 348 474 324 q 424 406 433 372 q 418 478 414 439 q 449 576 424 533 q 514 649 475 619 q 599 694 553 679 q 693 710 646 710 q 802 683 750 710 q 892 605 854 656 q 949 481 931 554 q 960 315 968 407 q 942 213 956 263 q 908 117 928 164 q 1018 62 968 93 q 1103 -6 1068 31 q 1156 -83 1138 -42 q 1169 -169 1174 -125 q 1147 -244 1165 -211 q 1098 -300 1128 -276 q 1028 -336 1068 -324 q 940 -349 988 -349 q 768 -322 850 -349 q 596 -244 686 -296 q 434 -319 521 -290 q 251 -349 347 -349 q 158 -335 199 -349 q 92 -296 118 -321 q 53 -236 65 -271 q 44 -161 40 -201 q 101 -31 51 -90 q 233 75 150 29 q 159 251 183 160 q 144 443 135 343 q 208 679 157 574 q 339 859 258 785 q 523 974 419 933 q 744 1014 626 1014 m 1076 -164 q 1026 -48 1082 -103 q 878 47 971 7 q 781 -92 833 -32 q 660 -200 728 -151 q 794 -251 726 -232 q 929 -269 861 -269 q 1033 -239 994 -269 q 1076 -164 1072 -208 m 588 -158 q 707 -55 656 -110 q 800 71 758 0 q 703 88 753 82 q 601 93 654 93 q 472 81 538 92 q 353 46 407 69 q 459 -65 397 -15 q 588 -158 521 -115 m 263 -269 q 394 -251 325 -269 q 525 -201 463 -233 q 387 -103 451 -157 q 278 11 322 -50 q 177 -72 214 -25 q 135 -167 140 -118 q 162 -242 131 -214 q 263 -269 193 -269 m 678 622 q 612 608 643 619 q 556 578 581 597 q 515 534 531 560 q 496 478 499 508 q 506 417 493 442 q 543 382 519 392 q 578 376 558 376 q 659 427 631 379 q 689 550 688 475 q 678 622 689 586 z "},"ஈ":{"ha":883,"x_min":111,"x_max":883,"o":"m 883 700 l 874 604 l 656 604 l 600 0 l 506 0 l 561 604 l 263 604 l 207 0 l 111 0 l 176 700 l 883 700 m 390 379 q 433 360 418 379 q 446 311 449 340 q 424 263 443 282 q 376 243 404 243 q 333 263 349 243 q 321 311 318 282 q 344 360 325 340 q 390 379 363 379 m 782 379 q 826 360 810 379 q 839 311 842 340 q 817 263 838 282 q 769 243 797 243 q 728 263 743 243 q 715 311 713 282 q 738 360 718 340 q 782 379 757 379 z "},"உ":{"ha":1131,"x_min":93,"x_max":1118,"o":"m 421 713 q 537 690 481 713 q 635 628 593 668 q 701 531 678 588 q 718 408 724 475 q 684 293 711 344 q 613 202 657 242 q 511 135 569 163 q 385 92 453 107 l 1118 92 l 1110 0 l 96 0 l 93 104 q 304 126 210 106 q 466 186 399 147 q 572 281 533 225 q 618 408 611 338 q 612 490 622 451 q 580 556 601 528 q 526 602 558 585 q 453 622 493 619 q 473 554 467 592 q 475 481 479 517 q 438 376 469 421 q 346 313 406 331 q 298 302 322 306 q 247 301 274 299 q 192 319 218 306 q 149 353 167 332 q 122 406 131 375 q 117 474 113 436 q 150 575 121 531 q 222 650 179 619 q 317 697 265 681 q 421 713 369 713 m 400 621 q 272 574 322 618 q 217 468 222 531 q 234 403 214 429 q 292 378 254 378 q 379 426 349 378 q 411 550 410 475 q 400 621 411 589 z "},"ஊ":{"ha":1793,"x_min":93,"x_max":1821,"o":"m 1094 713 q 1219 669 1169 713 q 1288 549 1268 626 l 1303 700 l 1821 700 l 1813 608 l 1685 608 l 1649 215 l 1551 215 l 1589 608 l 1383 608 l 1346 215 l 1257 215 l 1272 383 q 1266 482 1276 433 q 1230 566 1256 531 q 1163 617 1204 601 q 1063 617 1121 632 q 1134 528 1107 581 q 1161 414 1161 475 q 1147 335 1161 374 q 1108 268 1133 297 q 1047 221 1083 239 q 967 203 1011 203 q 902 216 932 203 q 849 253 872 229 q 813 313 826 278 q 800 392 800 347 q 822 508 800 450 q 882 611 843 565 q 975 685 921 657 q 1094 713 1029 713 m 1017 600 q 933 515 965 571 q 900 392 900 460 q 922 313 900 342 q 982 285 944 285 q 1028 298 1008 285 q 1060 332 1047 311 q 1080 379 1074 353 q 1086 432 1086 406 q 1067 525 1086 483 q 1017 600 1049 567 m 421 713 q 531 692 476 713 q 626 636 585 672 q 694 549 668 600 q 719 436 719 499 q 694 309 719 365 q 623 210 668 253 q 517 137 578 167 q 385 92 456 107 l 1764 92 l 1754 0 l 96 0 l 93 104 q 286 124 192 106 q 455 181 381 142 q 574 283 529 221 q 619 432 619 344 q 574 563 619 511 q 453 622 528 615 q 470 567 464 597 q 476 506 476 536 q 463 426 476 464 q 424 358 450 388 q 363 313 399 329 q 281 296 326 296 q 163 336 211 296 q 115 450 115 376 q 140 557 115 508 q 208 640 165 606 q 306 694 250 675 q 421 713 361 713 m 400 621 q 328 606 361 619 q 269 572 294 593 q 231 521 244 550 q 217 457 217 492 q 237 399 217 421 q 292 378 257 378 q 360 403 335 378 q 397 467 385 429 q 408 547 408 504 q 400 621 408 589 z "},"எ":{"ha":992,"x_min":88,"x_max":1032,"o":"m 1032 700 l 1022 604 l 876 604 l 821 0 l 726 0 l 782 604 l 596 604 q 443 581 514 604 q 319 515 372 557 q 233 414 265 472 q 193 288 200 356 q 213 153 185 201 q 290 85 242 104 q 283 154 283 118 q 289 226 282 190 q 314 297 297 264 q 356 356 331 331 q 413 395 381 381 q 483 410 446 410 q 603 356 563 410 q 635 219 643 303 q 608 128 631 171 q 550 55 586 86 q 467 6 514 24 q 364 -12 419 -12 q 255 10 307 -12 q 165 74 203 33 q 108 174 128 115 q 94 303 88 232 q 143 460 103 388 q 250 585 183 532 q 407 669 317 639 q 606 700 497 700 l 1032 700 m 464 318 q 383 276 415 317 q 342 181 351 235 q 339 126 339 153 q 344 75 339 99 q 371 71 358 71 q 420 80 393 71 q 472 107 447 89 q 514 153 496 125 q 536 219 532 181 q 522 290 539 261 q 464 318 504 318 z "},"ஏ":{"ha":992,"x_min":88,"x_max":1032,"o":"m 1032 700 l 1022 604 l 876 604 l 821 0 l 819 0 l 813 -78 l 488 -349 l 406 -297 l 724 -29 l 731 60 l 732 60 l 782 604 l 596 604 q 443 581 514 604 q 319 515 372 557 q 233 414 265 472 q 193 288 200 356 q 213 153 185 201 q 290 85 242 104 q 283 154 283 118 q 289 226 282 190 q 314 297 297 264 q 356 356 331 331 q 413 395 381 381 q 483 410 446 410 q 603 356 563 410 q 635 219 643 303 q 608 128 631 171 q 550 55 586 86 q 467 6 514 24 q 364 -12 419 -12 q 255 10 307 -12 q 165 74 203 33 q 108 174 128 115 q 94 303 88 232 q 143 460 103 388 q 250 585 183 532 q 407 669 317 639 q 606 700 497 700 l 1032 700 m 464 318 q 383 276 415 317 q 342 181 351 235 q 339 126 339 153 q 344 75 339 99 q 371 71 358 71 q 420 80 393 71 q 472 107 447 89 q 514 153 496 125 q 536 219 532 181 q 522 290 539 261 q 464 318 504 318 z "},"ஐ":{"ha":1074,"x_min":72,"x_max":1035,"o":"m 842 713 q 919 694 883 713 q 980 644 954 676 q 1020 568 1006 613 q 1035 471 1035 524 q 1000 300 1035 376 q 903 171 965 224 q 753 90 840 118 q 563 61 667 61 l 338 61 q 217 17 261 61 q 172 -103 172 -28 q 215 -210 172 -169 q 336 -250 257 -250 q 405 -240 372 -250 q 463 -206 438 -229 q 504 -148 488 -183 q 525 -62 521 -112 l 621 -62 q 619 -84 619 -74 q 618 -106 618 -94 q 653 -216 619 -182 q 739 -250 686 -250 q 844 -202 806 -250 q 882 -81 882 -154 q 856 38 882 -25 l 944 78 q 982 -79 982 -4 q 967 -183 982 -133 q 922 -269 951 -232 q 849 -327 893 -306 q 747 -349 806 -349 q 642 -315 686 -349 q 581 -204 597 -281 q 478 -312 543 -275 q 326 -349 414 -349 q 224 -331 271 -349 q 144 -281 178 -312 q 91 -203 110 -249 q 72 -104 72 -158 q 90 -1 72 -49 q 140 82 107 47 q 224 136 174 117 q 340 156 274 156 l 563 156 q 708 174 640 156 q 826 230 776 192 q 906 329 876 268 q 935 476 935 390 q 907 583 935 546 q 831 619 879 619 q 728 567 771 619 q 675 401 685 514 l 665 301 l 569 301 l 578 383 q 569 489 581 442 q 531 568 557 536 q 465 613 504 600 q 371 617 425 626 q 443 535 418 583 q 468 433 468 486 q 419 303 468 354 q 288 253 371 253 q 224 264 254 253 q 172 297 194 275 q 135 352 149 319 q 122 428 122 385 q 144 535 122 483 q 203 626 165 586 q 292 689 240 665 q 403 713 343 713 q 536 668 481 713 q 614 539 592 624 q 705 667 647 621 q 842 713 763 713 m 296 336 q 372 372 343 336 q 401 465 401 407 q 322 600 401 546 q 245 529 275 574 q 215 426 215 485 q 239 358 215 381 q 296 336 263 336 z "},"ஒ":{"ha":1357,"x_min":88,"x_max":1321,"o":"m 751 713 q 999 675 890 713 q 1180 575 1107 638 q 1287 431 1253 513 q 1313 261 1321 349 q 1286 148 1307 199 q 1233 62 1265 97 q 1160 7 1201 26 q 1072 -12 1119 -12 q 942 38 992 -12 q 900 172 893 89 q 939 293 904 228 q 834 182 874 249 q 788 44 794 115 q 835 -115 776 -62 q 1007 -167 894 -167 l 1101 -167 l 1093 -262 l 1004 -262 q 920 -255 961 -262 q 846 -232 879 -247 q 715 -407 781 -347 q 564 -481 650 -467 q 489 -483 524 -487 q 413 -465 447 -481 q 356 -422 379 -449 q 320 -359 332 -394 q 313 -281 308 -324 q 332 -201 315 -240 q 372 -128 349 -161 l 468 -144 q 436 -208 449 -176 q 418 -268 424 -239 q 421 -333 410 -304 q 458 -378 431 -364 q 521 -392 485 -392 q 642 -345 581 -392 q 768 -181 703 -299 q 703 -83 724 -137 q 690 43 683 -28 q 770 248 701 157 q 947 406 839 339 l 1044 367 q 1006 282 1019 319 q 988 196 992 244 q 1008 113 982 143 q 1078 83 1033 83 q 1166 131 1126 83 q 1214 261 1206 179 q 1188 403 1221 338 q 1091 516 1154 468 q 938 590 1028 564 q 742 617 847 617 q 523 594 621 617 q 354 527 425 571 q 242 420 283 483 q 192 276 200 357 q 213 151 185 197 q 290 85 242 104 q 283 154 283 118 q 289 226 282 190 q 313 297 296 264 q 356 356 331 331 q 413 395 381 381 q 483 410 446 410 q 603 356 563 410 q 635 219 643 303 q 608 127 631 169 q 548 53 585 85 q 464 5 511 22 q 364 -12 417 -12 q 253 10 304 -12 q 164 74 201 33 q 107 172 126 115 q 94 296 88 229 q 149 466 103 389 q 279 598 196 543 q 481 683 363 653 q 751 713 599 713 m 464 318 q 383 276 415 317 q 342 181 351 235 q 339 126 339 153 q 344 75 339 99 q 371 71 358 71 q 420 80 393 71 q 472 107 447 89 q 514 153 496 125 q 536 219 532 181 q 522 290 539 261 q 464 318 504 318 z "},"ஓ":{"ha":1344,"x_min":88,"x_max":1321,"o":"m 1004 -262 q 846 -235 914 -262 q 675 -428 758 -368 q 494 -487 592 -487 q 410 -473 449 -487 q 343 -433 371 -458 q 301 -371 315 -407 q 290 -292 286 -335 q 310 -222 294 -253 q 351 -170 326 -192 q 407 -137 376 -149 q 469 -126 438 -126 q 545 -146 515 -126 q 592 -197 575 -165 q 616 -272 610 -229 q 621 -360 622 -314 q 705 -282 669 -325 q 772 -190 740 -239 q 704 -91 725 -150 q 690 43 683 -32 q 770 248 701 157 q 947 406 839 339 l 1044 367 q 1006 282 1019 319 q 988 196 992 244 q 1008 113 982 143 q 1078 83 1033 83 q 1166 131 1126 83 q 1214 261 1206 179 q 1188 403 1221 338 q 1091 516 1154 468 q 938 590 1028 564 q 742 617 847 617 q 523 594 621 617 q 354 527 425 571 q 242 420 283 483 q 192 276 200 357 q 213 151 185 197 q 290 85 242 104 q 283 154 283 118 q 289 226 282 190 q 315 297 297 264 q 357 356 332 331 q 414 395 382 381 q 483 410 446 410 q 603 356 563 410 q 635 219 643 303 q 608 127 631 169 q 548 53 585 85 q 464 5 511 22 q 364 -12 417 -12 q 253 10 304 -12 q 164 74 201 33 q 107 172 126 115 q 94 296 88 229 q 149 466 103 389 q 279 598 196 543 q 481 683 363 653 q 751 713 599 713 q 999 675 890 713 q 1180 575 1107 638 q 1287 431 1253 513 q 1313 261 1321 349 q 1286 148 1307 199 q 1233 62 1265 97 q 1160 7 1201 26 q 1072 -12 1118 -12 q 942 38 992 -12 q 900 172 893 89 q 939 293 904 228 q 834 182 874 249 q 788 44 794 115 q 835 -115 776 -62 q 1007 -167 894 -167 l 1101 -167 l 1093 -262 l 1004 -262 m 464 318 q 383 276 415 318 q 342 181 351 235 q 339 126 339 153 q 344 75 339 99 q 376 71 358 71 q 424 80 399 71 q 474 108 450 89 q 515 154 497 126 q 536 219 532 182 q 522 290 539 261 q 464 318 504 318 m 475 -210 q 413 -235 439 -210 q 383 -299 388 -260 q 412 -372 381 -344 q 490 -400 443 -400 q 528 -397 511 -400 q 561 -389 544 -394 q 546 -261 567 -312 q 475 -210 525 -210 z "},"ஔ":{"ha":2704,"x_min":88,"x_max":2740,"o":"m 1004 -262 q 846 -235 914 -262 q 675 -428 758 -368 q 494 -487 592 -487 q 410 -473 449 -487 q 343 -433 371 -458 q 301 -371 315 -407 q 290 -292 286 -335 q 310 -222 294 -253 q 351 -170 326 -192 q 407 -137 376 -149 q 469 -126 438 -126 q 545 -146 515 -126 q 592 -197 575 -165 q 616 -272 610 -229 q 621 -360 622 -314 q 705 -282 669 -325 q 772 -190 740 -239 q 704 -91 725 -150 q 690 43 683 -32 q 770 248 701 157 q 947 406 839 339 l 1044 367 q 1006 282 1019 319 q 988 196 992 244 q 1008 113 982 143 q 1078 83 1033 83 q 1166 131 1126 83 q 1214 261 1206 179 q 1188 403 1221 338 q 1091 516 1154 468 q 938 590 1028 564 q 742 617 847 617 q 523 594 621 617 q 354 527 425 571 q 242 420 283 483 q 192 276 200 357 q 213 151 185 197 q 290 85 242 104 q 283 154 283 118 q 289 226 282 190 q 315 297 297 264 q 357 356 332 331 q 414 395 382 381 q 483 410 446 410 q 603 356 563 410 q 635 219 643 303 q 608 127 631 169 q 548 53 585 85 q 464 5 511 22 q 364 -12 417 -12 q 253 10 304 -12 q 164 74 201 33 q 107 172 126 115 q 94 296 88 229 q 149 466 103 389 q 279 598 196 543 q 481 683 363 653 q 751 713 599 713 q 999 675 890 713 q 1180 575 1107 638 q 1287 431 1253 513 q 1313 261 1321 349 q 1286 148 1307 199 q 1233 62 1265 97 q 1160 7 1201 26 q 1072 -12 1118 -12 q 942 38 992 -12 q 900 172 893 89 q 939 293 904 228 q 834 182 874 249 q 788 44 794 115 q 835 -115 776 -62 q 1007 -167 894 -167 l 1101 -167 l 1093 -262 l 1004 -262 m 1850 713 q 1956 694 1910 713 q 2038 642 2003 675 q 2094 565 2072 610 q 2128 468 2117 519 l 2151 700 l 2740 700 l 2731 604 l 2586 604 l 2529 0 l 2435 0 l 2490 604 l 2229 604 l 2174 0 l 2085 0 l 2107 235 q 2101 393 2115 322 q 2052 513 2086 464 q 1967 590 2018 563 q 1851 617 1915 617 q 1733 590 1789 617 q 1632 519 1676 564 q 1559 415 1588 475 q 1525 288 1531 354 q 1545 153 1517 201 q 1622 85 1574 104 q 1615 154 1615 118 q 1621 226 1614 190 q 1647 297 1629 264 q 1689 356 1664 331 q 1746 395 1714 381 q 1815 410 1778 410 q 1935 356 1894 410 q 1967 219 1975 303 q 1940 128 1963 171 q 1882 55 1918 86 q 1799 6 1846 24 q 1696 -12 1751 -12 q 1587 10 1639 -12 q 1497 75 1535 33 q 1440 175 1460 117 q 1426 306 1419 233 q 1473 471 1435 396 q 1569 599 1511 546 q 1700 683 1628 653 q 1850 713 1772 713 m 1796 318 q 1715 276 1747 318 q 1674 181 1683 235 q 1671 126 1671 153 q 1676 75 1671 99 q 1708 71 1690 71 q 1756 80 1731 71 q 1806 108 1782 89 q 1847 154 1829 126 q 1868 219 1864 182 q 1853 290 1871 261 q 1796 318 1836 318 m 464 318 q 383 276 415 318 q 342 181 351 235 q 339 126 339 153 q 344 75 339 99 q 376 71 358 71 q 424 80 399 71 q 474 108 450 89 q 515 154 497 126 q 536 219 532 182 q 522 290 539 261 q 464 318 504 318 m 475 -210 q 413 -235 439 -210 q 383 -299 388 -260 q 412 -372 381 -344 q 490 -400 443 -400 q 528 -397 511 -400 q 561 -389 544 -394 q 546 -261 567 -312 q 475 -210 525 -210 z "},"க":{"ha":963,"x_min":76,"x_max":931,"o":"m 336 389 l 550 389 l 571 604 l 356 604 l 336 389 m 272 315 q 204 295 232 315 q 176 226 176 275 q 192 167 176 194 q 235 119 207 139 q 300 88 263 99 q 382 76 338 76 q 492 117 456 76 q 536 242 528 158 l 544 315 l 272 315 m 857 700 l 846 604 l 665 604 l 646 389 l 747 389 q 882 344 833 389 q 931 226 931 299 q 883 83 931 144 q 751 -12 835 21 l 697 69 q 791 123 751 85 q 831 224 831 161 q 805 291 831 267 q 731 315 779 315 l 639 315 l 632 240 q 382 -12 607 -12 q 258 8 314 -12 q 161 62 201 28 q 99 140 121 96 q 76 231 76 183 q 119 345 76 301 q 232 389 161 389 l 246 389 l 276 700 l 857 700 z "},"ங":{"ha":1199,"x_min":111,"x_max":1143,"o":"m 771 700 l 761 604 l 614 604 l 594 399 l 707 399 q 787 385 754 399 q 840 350 819 372 q 867 297 860 328 q 871 233 874 267 q 781 96 860 140 l 992 96 l 1049 700 l 1143 700 l 1078 0 l 483 0 l 492 96 l 621 96 q 733 131 696 96 q 775 218 769 167 q 758 293 779 263 q 678 324 736 324 l 494 324 l 519 604 l 263 604 l 207 0 l 111 0 l 176 700 l 771 700 z "},"ச":{"ha":832,"x_min":72,"x_max":856,"o":"m 335 389 l 550 389 l 569 604 l 356 604 l 335 389 m 272 315 q 203 296 226 315 q 176 238 181 276 q 188 174 174 203 q 229 123 201 144 q 297 89 257 101 q 382 76 336 76 q 492 117 456 76 q 536 242 529 158 l 544 315 l 272 315 m 856 700 l 846 604 l 664 604 l 644 389 l 796 389 l 790 315 l 639 315 l 631 240 q 382 -12 606 -12 q 251 10 310 -12 q 153 68 193 32 q 92 152 113 104 q 78 250 72 200 q 131 356 85 324 q 246 389 176 389 l 275 700 l 856 700 z "},"ஜ":{"ha":1078,"x_min":71,"x_max":1035,"o":"m 403 713 q 540 664 488 713 q 613 536 593 615 q 704 666 646 619 q 842 713 763 713 q 919 694 883 713 q 980 645 954 676 q 1020 570 1006 614 q 1035 476 1035 526 q 998 302 1035 378 q 896 174 961 226 q 742 95 831 122 q 547 68 653 68 l 381 68 q 296 55 335 68 q 229 18 257 42 q 185 -39 201 -6 q 169 -112 169 -72 q 212 -217 169 -179 q 317 -254 254 -254 q 400 -235 358 -254 q 483 -187 442 -217 q 565 -126 524 -158 q 648 -64 606 -93 q 734 -16 690 -35 q 825 3 778 3 q 943 -40 904 3 q 982 -144 982 -83 q 965 -226 982 -190 q 917 -289 947 -262 q 846 -333 888 -315 q 757 -357 804 -350 l 703 -297 q 766 -283 733 -293 q 824 -257 799 -274 q 867 -216 850 -240 q 883 -160 883 -192 q 864 -108 883 -131 q 808 -86 844 -86 q 736 -106 774 -86 q 660 -154 699 -125 q 579 -217 621 -183 q 494 -281 538 -251 q 403 -329 450 -310 q 308 -349 357 -349 q 214 -333 257 -349 q 139 -287 171 -317 q 89 -217 107 -258 q 71 -124 71 -175 q 93 -8 71 -60 q 156 81 115 44 q 253 136 196 117 q 381 156 310 156 l 556 156 q 707 174 638 156 q 827 232 776 193 q 906 331 878 271 q 935 476 935 392 q 907 582 935 544 q 831 619 879 619 q 728 566 771 619 q 674 400 685 513 l 665 308 l 569 308 l 576 374 q 572 472 582 424 q 538 556 563 521 q 471 610 513 592 q 371 617 429 628 q 442 534 418 583 q 467 432 467 485 q 417 303 467 354 q 288 253 368 253 q 224 264 254 253 q 172 297 194 275 q 135 351 149 318 q 122 426 122 383 q 144 534 122 482 q 203 626 165 586 q 292 689 240 665 q 403 713 343 713 m 322 600 q 246 529 276 575 q 215 426 215 483 q 235 362 215 388 q 296 336 256 336 q 373 374 344 336 q 401 463 401 411 q 382 538 401 503 q 322 600 363 572 z "},"ஞ":{"ha":1519,"x_min":96,"x_max":1476,"o":"m 1317 700 l 1306 604 l 1161 604 l 1132 294 q 1206 381 1161 353 q 1304 410 1250 410 q 1377 390 1344 410 q 1433 334 1410 369 q 1466 250 1456 299 q 1472 146 1476 201 q 1410 -56 1461 35 q 1274 -212 1360 -147 q 1067 -312 1188 -276 q 794 -349 946 -349 q 504 -309 636 -349 q 280 -192 372 -269 q 142 1 188 -114 q 110 265 96 115 q 167 503 122 396 q 279 710 213 610 l 364 682 q 257 476 294 575 q 210 265 219 378 q 239 35 197 132 q 362 -126 281 -62 q 558 -219 443 -189 q 804 -249 672 -249 q 1022 -222 922 -249 q 1197 -145 1122 -196 q 1317 -21 1271 -94 q 1371 146 1363 53 q 1350 272 1378 226 q 1272 318 1322 318 q 1167 258 1204 318 q 1114 99 1129 197 l 1106 0 l 1008 0 l 1010 4 l 1067 604 l 881 604 q 726 581 797 604 q 602 515 656 557 q 516 414 549 472 q 476 288 483 356 q 497 153 468 201 q 575 85 525 104 q 566 154 567 118 q 574 226 565 190 q 599 297 582 264 q 640 356 615 331 q 697 395 665 381 q 768 410 729 410 q 887 356 847 410 q 918 219 926 303 q 892 128 914 171 q 833 55 869 86 q 750 6 797 24 q 649 -12 703 -12 q 539 10 590 -12 q 449 74 488 33 q 392 174 411 115 q 379 303 372 232 q 427 460 388 388 q 533 585 467 532 q 690 669 600 639 q 889 700 781 700 l 1317 700 m 747 318 q 667 276 699 317 q 626 181 635 235 q 628 75 618 121 q 656 71 642 71 q 704 80 678 71 q 755 107 731 89 q 797 153 779 125 q 819 219 815 181 q 805 290 822 261 q 747 318 788 318 z "},"ட":{"ha":825,"x_min":111,"x_max":819,"o":"m 272 700 l 214 96 l 819 96 l 811 0 l 111 0 l 176 700 l 272 700 z "},"ண":{"ha":2011,"x_min":88,"x_max":2051,"o":"m 642 713 q 809 685 729 713 q 960 596 889 657 q 1088 682 1018 651 q 1233 713 1157 713 q 1367 682 1306 713 q 1478 594 1428 651 q 1627 673 1544 646 q 1801 700 1710 700 l 2051 700 l 2042 604 l 1896 604 l 1839 0 l 1746 0 l 1801 604 q 1660 585 1726 604 q 1536 535 1594 567 q 1613 389 1589 464 q 1629 226 1638 314 q 1557 51 1618 115 q 1408 -12 1496 -12 q 1271 51 1321 -12 q 1231 226 1221 115 q 1284 395 1239 315 q 1404 542 1329 475 q 1317 597 1364 576 q 1224 617 1271 617 q 1119 597 1172 617 q 1021 542 1067 576 q 1111 388 1085 469 q 1131 226 1138 306 q 1058 51 1119 115 q 910 -12 997 -12 q 831 4 865 -12 q 772 52 796 21 q 738 127 749 83 q 732 226 726 171 q 782 393 740 314 q 889 538 824 472 q 772 595 836 574 q 632 617 707 617 q 465 592 542 617 q 329 523 388 567 q 235 419 271 479 q 193 288 200 358 q 213 152 185 200 q 290 85 242 104 q 283 154 283 118 q 289 226 282 190 q 315 297 297 264 q 357 356 332 331 q 414 395 382 381 q 483 410 446 410 q 603 356 563 410 q 635 219 643 303 q 608 127 631 169 q 548 53 585 85 q 464 5 511 22 q 364 -12 417 -12 q 253 10 304 -12 q 164 75 201 33 q 107 175 126 117 q 94 303 88 233 q 143 463 101 388 q 256 593 185 538 q 424 681 326 649 q 642 713 522 713 m 464 318 q 383 276 415 318 q 342 181 351 235 q 339 126 339 153 q 346 75 339 99 q 376 71 360 71 q 425 81 399 71 q 475 110 451 90 q 515 156 499 129 q 536 219 532 183 q 522 290 539 261 q 464 318 504 318 m 951 488 q 868 368 901 435 q 828 226 835 301 q 849 119 822 160 q 917 78 875 78 q 995 119 961 78 q 1036 226 1029 160 q 1021 369 1043 303 q 951 488 999 435 m 1465 486 q 1367 361 1401 428 q 1326 226 1333 294 q 1347 118 1319 158 q 1417 78 1374 78 q 1494 118 1460 78 q 1535 226 1528 158 q 1523 365 1542 299 q 1465 486 1504 431 z "},"த":{"ha":963,"x_min":17,"x_max":936,"o":"m 857 700 l 846 604 l 665 604 l 646 389 q 772 376 717 389 q 865 335 828 364 q 919 258 903 306 q 929 142 936 211 q 878 -22 921 47 q 767 -138 836 -92 q 602 -208 697 -185 q 393 -231 507 -231 l 185 -231 q 135 -246 154 -231 q 114 -292 117 -261 q 126 -350 111 -324 q 164 -400 140 -376 l 93 -446 q 40 -369 63 -414 q 22 -272 17 -325 q 83 -163 29 -192 q 233 -135 138 -135 l 453 -135 q 610 -113 542 -135 q 725 -55 678 -92 q 799 33 772 -18 q 831 142 825 83 q 826 226 836 193 q 794 280 817 260 q 740 308 772 300 q 667 315 707 315 l 639 315 l 632 240 q 382 -12 607 -12 q 253 10 311 -12 q 153 68 194 32 q 92 152 113 104 q 78 250 72 200 q 126 353 85 317 q 233 389 168 389 l 246 389 l 276 700 l 857 700 m 272 315 q 176 238 185 315 q 188 174 174 203 q 229 123 201 144 q 297 89 257 101 q 382 76 336 76 q 492 117 456 76 q 536 242 529 158 l 544 315 l 272 315 m 336 389 l 550 389 l 571 604 l 356 604 l 336 389 z "},"ந":{"ha":974,"x_min":40,"x_max":935,"o":"m 771 700 l 761 604 l 614 604 l 583 288 q 656 380 611 350 q 757 410 701 410 q 834 390 800 410 q 891 334 868 369 q 924 250 914 299 q 929 146 935 201 q 884 -5 921 64 q 785 -124 847 -74 q 639 -202 724 -174 q 451 -231 554 -231 l 210 -231 q 138 -293 144 -231 q 149 -351 135 -325 q 186 -400 163 -376 l 114 -446 q 61 -367 82 -410 q 46 -272 40 -324 q 59 -219 49 -244 q 90 -176 69 -194 q 139 -146 110 -157 q 207 -135 168 -135 l 464 -135 q 615 -112 549 -135 q 727 -52 681 -90 q 799 38 774 -14 q 831 146 825 89 q 808 272 838 226 q 731 318 778 318 q 674 302 701 318 q 624 257 646 286 q 586 188 601 228 q 565 99 571 147 l 558 0 l 464 0 l 519 604 l 263 604 l 207 0 l 111 0 l 176 700 l 771 700 z "},"ன":{"ha":1510,"x_min":88,"x_max":1550,"o":"m 642 713 q 828 678 750 713 q 971 588 906 644 q 1122 669 1038 639 q 1300 700 1206 700 l 1550 700 l 1540 604 l 1394 604 l 1339 0 l 1244 0 l 1300 604 q 1156 585 1224 604 q 1033 533 1088 567 q 1111 388 1086 465 q 1128 226 1136 310 q 1103 127 1122 171 q 1056 52 1085 83 q 988 4 1026 21 q 907 -12 950 -12 q 828 4 863 -12 q 769 52 793 21 q 735 127 746 83 q 731 226 725 171 q 782 395 739 318 q 893 532 825 472 q 781 592 842 568 q 632 617 721 617 q 466 592 543 617 q 331 523 389 567 q 236 419 272 479 q 193 288 200 358 q 213 153 185 201 q 290 85 242 104 q 283 154 283 118 q 289 226 282 190 q 315 297 297 264 q 357 356 332 331 q 414 395 382 381 q 483 410 446 410 q 603 356 563 410 q 635 219 643 303 q 608 128 631 171 q 550 55 586 86 q 467 6 514 24 q 364 -12 419 -12 q 255 10 307 -12 q 165 74 203 33 q 108 174 128 115 q 94 303 88 232 q 143 463 101 388 q 256 593 185 538 q 424 681 326 649 q 642 713 522 713 m 960 486 q 866 365 900 429 q 826 226 832 300 q 845 119 819 160 q 915 78 871 78 q 992 119 958 78 q 1032 226 1025 160 q 1019 367 1039 301 q 960 486 1000 432 m 464 318 q 383 276 415 318 q 342 181 351 235 q 339 126 339 153 q 344 75 339 99 q 376 71 358 71 q 425 81 399 71 q 475 110 451 90 q 515 156 499 129 q 536 219 532 183 q 522 290 539 261 q 464 318 504 318 z "},"ப":{"ha":931,"x_min":111,"x_max":876,"o":"m 272 700 l 214 96 l 722 96 l 781 700 l 876 700 l 808 0 l 111 0 l 176 700 l 272 700 z "},"ம":{"ha":1031,"x_min":111,"x_max":997,"o":"m 272 700 l 214 96 l 500 96 l 539 510 q 598 663 549 613 q 725 713 647 713 q 835 678 783 713 q 924 588 888 644 q 979 459 961 532 q 990 308 997 386 q 890 81 975 161 q 671 0 806 0 l 111 0 l 176 700 l 272 700 m 721 617 q 662 590 686 617 q 633 510 638 563 l 594 96 l 679 96 q 822 147 765 96 q 889 308 878 199 q 883 421 894 365 q 849 520 872 476 q 792 590 825 564 q 721 617 758 617 z "},"ய":{"ha":1196,"x_min":124,"x_max":1142,"o":"m 274 700 l 232 254 q 252 125 224 167 q 347 83 281 83 q 453 128 406 83 q 519 267 501 172 l 561 700 l 656 700 l 599 96 l 989 96 l 1047 700 l 1142 700 l 1076 0 l 494 0 l 507 136 q 433 29 479 71 q 313 -12 386 -12 q 172 49 221 -12 q 135 233 124 110 l 179 700 l 274 700 z "},"ர":{"ha":731,"x_min":111,"x_max":768,"o":"m 768 700 l 760 604 l 614 604 l 561 29 l 558 0 l 550 -78 l 225 -349 l 142 -297 l 460 -29 l 465 25 l 519 604 l 263 604 l 207 0 l 111 0 l 176 700 l 768 700 z "},"ற":{"ha":1014,"x_min":68,"x_max":981,"o":"m 386 713 q 487 673 451 713 q 532 571 522 633 q 619 679 568 646 q 740 713 669 713 q 845 681 799 713 q 923 594 892 650 q 967 461 954 538 q 972 294 981 385 q 812 -95 947 40 q 451 -231 676 -231 l 236 -231 q 165 -292 169 -231 q 176 -350 161 -324 q 215 -400 192 -376 l 144 -446 q 90 -369 113 -414 q 72 -272 68 -325 q 86 -219 75 -244 q 117 -176 97 -194 q 165 -146 136 -157 q 233 -135 194 -135 l 461 -135 q 634 -101 561 -135 q 757 -10 707 -68 q 835 125 807 47 q 871 293 863 203 q 869 426 878 367 q 842 528 861 486 q 794 594 824 571 q 731 617 765 617 q 635 568 672 617 q 590 425 599 519 l 550 0 l 457 0 l 497 424 q 392 617 513 614 q 294 568 331 617 q 249 425 258 519 l 208 0 l 114 0 l 154 425 q 227 641 167 569 q 386 713 288 713 z "},"ல":{"ha":1258,"x_min":88,"x_max":1233,"o":"m 588 713 q 820 613 754 713 q 868 324 886 514 l 857 201 q 868 109 851 135 q 925 83 885 83 q 989 107 956 83 q 1050 171 1022 131 q 1098 264 1078 211 q 1124 375 1118 317 q 1106 538 1132 458 q 1022 688 1079 617 l 1142 713 q 1212 550 1190 638 q 1225 375 1233 463 q 1190 231 1218 300 q 1119 107 1161 161 q 1024 20 1076 53 q 917 -12 972 -12 q 791 44 829 -12 q 763 201 753 101 l 774 324 q 740 548 788 479 q 576 617 692 617 q 438 592 504 617 q 320 522 372 567 q 234 418 268 478 q 193 288 200 358 q 213 153 185 201 q 290 85 242 104 q 281 144 282 113 q 283 207 279 175 q 305 285 289 249 q 347 350 321 322 q 407 394 372 378 q 483 410 442 410 q 603 356 563 410 q 635 219 643 303 q 608 128 631 171 q 550 55 586 86 q 467 6 514 24 q 364 -12 419 -12 q 255 10 307 -12 q 165 74 203 33 q 108 174 128 115 q 94 303 88 232 q 144 464 103 389 q 252 594 186 539 q 404 681 318 649 q 588 713 490 713 m 464 318 q 383 276 415 317 q 342 181 351 235 q 339 126 339 153 q 344 75 339 99 q 371 71 357 71 q 420 80 393 71 q 472 107 447 89 q 514 153 496 125 q 536 219 532 181 q 522 290 539 261 q 464 318 504 318 z "},"ள":{"ha":1371,"x_min":88,"x_max":1408,"o":"m 518 713 q 624 694 578 713 q 706 642 671 675 q 763 565 740 610 q 796 468 785 519 l 819 700 l 1408 700 l 1399 604 l 1254 604 l 1197 0 l 1103 0 l 1158 604 l 897 604 l 842 0 l 753 0 l 775 235 q 769 393 783 322 q 720 513 754 464 q 635 590 686 563 q 519 617 583 617 q 401 590 457 617 q 300 519 344 564 q 227 415 256 475 q 193 288 199 354 q 213 153 185 201 q 290 85 242 104 q 283 154 283 118 q 289 226 282 190 q 315 297 297 264 q 357 356 332 331 q 414 395 382 381 q 483 410 446 410 q 603 356 563 410 q 635 219 643 303 q 608 128 631 171 q 550 55 586 86 q 467 6 514 24 q 364 -12 419 -12 q 255 10 307 -12 q 165 75 203 33 q 108 175 128 117 q 94 306 88 233 q 141 471 103 396 q 238 599 179 546 q 368 683 296 653 q 518 713 440 713 m 464 318 q 383 276 415 318 q 342 181 351 235 q 339 126 339 153 q 344 75 339 99 q 376 71 358 71 q 424 80 399 71 q 474 108 450 89 q 515 154 497 126 q 536 219 532 182 q 522 290 539 261 q 464 318 504 318 z "},"ழ":{"ha":1031,"x_min":72,"x_max":997,"o":"m 272 700 l 214 96 l 500 96 l 539 510 q 598 663 549 613 q 725 713 647 713 q 835 678 783 713 q 924 588 888 644 q 979 459 961 532 q 990 308 997 386 q 890 81 975 161 q 671 0 806 0 l 583 0 l 582 -18 q 599 -109 575 -81 q 700 -137 624 -137 l 861 -137 l 853 -233 l 686 -233 q 613 -225 646 -233 q 533 -344 572 -294 q 454 -426 494 -394 q 370 -473 414 -458 q 276 -487 326 -487 q 190 -472 229 -487 q 125 -428 151 -456 q 85 -362 99 -400 q 76 -281 72 -325 q 97 -197 81 -236 q 136 -128 114 -157 l 233 -144 q 196 -213 211 -178 q 176 -285 181 -249 q 203 -366 171 -340 q 285 -392 236 -392 q 405 -344 343 -392 q 533 -181 467 -296 q 495 -108 506 -150 q 490 -18 485 -67 l 492 0 l 111 0 l 176 700 l 272 700 m 721 617 q 662 590 686 617 q 633 510 638 563 l 594 96 l 679 96 q 822 147 765 96 q 889 308 878 199 q 883 421 894 365 q 849 520 872 476 q 792 590 825 564 q 721 617 758 617 z "},"வ":{"ha":1351,"x_min":88,"x_max":1297,"o":"m 553 713 q 716 680 646 713 q 831 592 786 647 q 894 466 875 538 q 906 318 913 394 q 884 201 900 256 q 844 96 868 146 l 1143 96 l 1201 700 l 1297 700 l 1231 0 l 794 0 l 724 47 q 776 172 756 106 q 804 306 797 239 q 797 424 810 368 q 751 523 783 481 q 666 591 718 565 q 542 617 614 617 q 415 592 475 617 q 308 524 356 568 q 231 420 261 481 q 193 288 200 360 q 214 153 185 203 q 290 85 243 104 q 283 154 283 118 q 289 226 282 190 q 314 297 297 264 q 356 356 331 331 q 413 395 381 381 q 483 410 444 410 q 603 356 563 410 q 635 219 643 303 q 608 128 631 171 q 550 55 586 86 q 467 6 514 24 q 364 -12 419 -12 q 255 10 307 -12 q 165 74 203 33 q 108 174 128 115 q 94 303 88 232 q 142 470 103 394 q 244 600 182 546 q 385 683 306 654 q 553 713 464 713 m 464 318 q 383 276 415 317 q 342 181 351 235 q 339 126 339 153 q 344 75 339 99 q 371 71 357 71 q 420 80 393 71 q 472 107 447 89 q 514 153 496 125 q 536 219 532 181 q 522 290 539 261 q 464 318 504 318 z "},"ஶ":{"ha":1364,"x_min":125,"x_max":1317,"o":"m 274 700 l 235 275 q 235 186 229 222 q 258 127 242 150 q 297 94 274 104 q 349 83 319 83 q 449 126 407 83 q 500 275 490 169 l 540 700 l 1317 700 l 1276 275 q 1247 151 1269 204 q 1191 60 1225 97 q 1113 6 1157 24 q 1022 -12 1069 -12 q 933 6 974 -12 q 866 60 893 24 q 826 151 839 97 q 821 275 814 204 l 851 604 l 625 604 l 594 275 q 565 151 588 204 q 509 60 543 97 q 431 6 475 24 q 339 -12 388 -12 q 181 60 238 -12 q 139 275 125 133 l 179 700 l 274 700 m 917 275 q 917 186 911 222 q 939 127 924 150 q 977 94 954 104 q 1029 83 1000 83 q 1130 126 1089 83 q 1182 275 1171 169 l 1213 604 l 947 604 l 917 275 z "},"ஷ":{"ha":1719,"x_min":88,"x_max":1657,"o":"m 553 713 q 716 680 646 713 q 831 592 786 647 q 894 466 875 538 q 906 318 913 394 q 884 201 900 256 q 844 96 868 146 l 1161 96 l 1215 271 q 1128 292 1168 275 q 1061 336 1089 308 q 1020 401 1033 364 q 1011 486 1007 439 q 1038 580 1015 538 q 1092 651 1060 622 q 1166 697 1125 681 q 1250 713 1207 713 q 1312 700 1285 713 q 1358 665 1339 688 q 1385 610 1376 642 q 1392 543 1394 579 q 1388 517 1390 531 q 1382 489 1385 504 l 1342 354 q 1465 424 1406 376 q 1588 546 1524 471 l 1657 508 l 1608 0 l 1233 0 l 1140 -304 l 1040 -304 l 1133 0 l 794 0 l 724 47 q 776 172 756 106 q 804 306 797 239 q 797 424 810 368 q 751 523 783 481 q 666 591 718 565 q 542 617 614 617 q 415 592 475 617 q 308 524 356 568 q 231 420 261 481 q 193 288 200 360 q 213 153 185 201 q 290 85 242 104 q 283 154 283 118 q 289 226 282 190 q 313 297 296 264 q 356 356 331 331 q 413 395 381 381 q 483 410 446 410 q 603 356 563 410 q 635 219 643 303 q 608 128 631 171 q 550 55 586 86 q 467 6 514 24 q 364 -12 419 -12 q 255 10 307 -12 q 165 74 203 33 q 108 174 128 115 q 94 303 88 232 q 142 470 103 394 q 243 600 182 546 q 384 683 304 654 q 553 713 464 713 m 1261 96 l 1524 96 l 1554 418 q 1439 323 1499 360 q 1317 275 1379 286 l 1261 96 m 1239 617 q 1192 606 1214 617 q 1151 574 1169 594 q 1123 528 1133 554 q 1111 471 1113 501 q 1141 381 1108 417 q 1244 342 1174 344 l 1296 508 q 1301 527 1299 518 q 1303 543 1303 536 q 1290 597 1306 578 q 1239 617 1274 617 m 464 318 q 417 306 438 318 q 380 273 396 293 q 354 226 364 253 q 340 172 344 200 q 338 119 338 144 q 344 72 338 94 q 355 72 351 71 q 361 72 358 72 q 421 82 386 71 q 495 128 461 94 q 536 219 529 163 q 522 290 539 261 q 464 318 504 318 z "},"ஸ":{"ha":1613,"x_min":93,"x_max":1582,"o":"m 511 713 q 623 694 575 713 q 705 643 671 675 q 760 568 739 611 q 793 476 782 525 q 881 653 818 594 q 1033 713 943 713 q 1180 651 1132 713 q 1229 482 1228 590 q 1228 454 1229 469 q 1226 424 1228 439 l 1206 201 q 1204 160 1203 181 q 1213 122 1206 139 q 1237 94 1221 104 q 1279 83 1253 83 q 1355 115 1318 83 q 1420 195 1392 146 q 1466 303 1449 244 q 1483 417 1483 363 q 1456 558 1483 490 q 1379 688 1428 626 l 1496 713 q 1560 572 1538 647 q 1582 422 1582 497 q 1558 274 1582 351 q 1493 133 1535 197 q 1394 28 1451 69 q 1271 -12 1338 -12 q 1192 5 1225 -12 q 1140 51 1160 22 q 1114 119 1121 81 q 1111 201 1107 158 l 1132 424 q 1133 485 1135 451 q 1119 547 1131 518 q 1086 597 1108 576 q 1025 617 1064 617 q 930 569 967 617 q 883 425 893 522 l 843 0 l 749 0 l 768 228 q 770 260 769 244 q 771 290 771 275 q 752 431 771 369 q 699 533 733 492 q 618 596 665 575 q 515 617 571 617 q 387 588 446 617 q 283 508 328 558 q 214 393 239 458 q 189 256 189 328 q 217 142 189 183 q 286 85 244 101 q 281 193 276 133 q 299 271 285 232 q 340 341 314 310 q 401 391 365 372 q 481 410 436 410 q 595 363 556 410 q 635 243 635 317 q 613 144 635 190 q 554 63 592 97 q 467 8 517 28 q 363 -12 418 -12 q 260 8 308 -12 q 174 65 211 28 q 115 153 136 101 q 93 271 93 206 q 124 435 93 356 q 210 576 156 515 q 342 675 265 638 q 511 713 419 713 m 461 318 q 408 302 431 318 q 369 261 385 286 q 345 206 353 236 q 336 149 338 176 q 344 75 333 108 q 368 71 354 71 q 428 83 399 71 q 481 117 458 96 q 519 169 504 139 q 533 233 533 199 q 515 294 533 269 q 461 318 497 318 z "},"ஹ":{"ha":2042,"x_min":36,"x_max":2008,"o":"m 1414 713 q 1515 673 1481 713 q 1558 571 1549 633 q 1647 679 1594 646 q 1767 713 1699 713 q 1873 681 1826 713 q 1951 594 1919 650 q 1995 461 1982 538 q 2000 294 2008 385 q 1947 70 1988 168 q 1839 -94 1906 -28 q 1681 -196 1772 -161 q 1479 -231 1590 -231 l 204 -231 q 155 -246 174 -231 q 133 -292 136 -261 q 145 -350 131 -324 q 183 -400 160 -376 l 113 -446 q 58 -369 81 -414 q 42 -272 36 -325 q 55 -219 44 -244 q 85 -176 65 -194 q 133 -146 104 -157 q 200 -135 161 -135 l 1457 -135 q 1522 -132 1490 -135 q 1583 -124 1554 -129 q 1715 -73 1660 -110 q 1810 19 1771 -36 q 1870 144 1849 75 q 1900 293 1892 214 q 1898 426 1906 367 q 1870 528 1890 486 q 1821 594 1850 571 q 1757 617 1792 617 q 1664 568 1700 617 q 1618 425 1628 519 l 1578 0 l 1483 0 l 1524 424 q 1418 617 1539 613 q 1322 568 1357 617 q 1278 425 1286 519 l 1238 0 l 801 0 l 729 47 q 782 172 761 106 q 810 306 803 239 q 802 424 815 368 q 757 523 789 481 q 673 591 725 565 q 549 617 621 617 q 423 592 483 617 q 315 524 363 568 q 237 420 268 481 q 199 288 206 360 q 220 153 192 203 q 296 85 249 104 q 288 154 289 118 q 294 226 288 190 q 342 327 308 283 q 425 390 375 371 q 519 401 472 410 q 617 344 585 394 q 642 219 649 293 q 615 128 638 171 q 557 55 593 86 q 473 6 521 24 q 371 -12 425 -12 q 261 10 313 -12 q 172 74 210 33 q 113 174 133 115 q 100 303 93 232 q 148 470 108 394 q 249 600 188 546 q 391 683 311 654 q 560 713 471 713 q 722 680 653 713 q 836 592 792 647 q 900 466 881 538 q 913 318 919 394 q 890 201 906 256 q 850 96 874 146 l 1150 96 l 1181 425 q 1255 641 1194 569 q 1414 713 1315 713 m 469 318 q 389 276 421 318 q 349 181 357 235 q 344 126 344 153 q 351 75 344 99 q 365 72 357 72 q 376 71 372 71 q 426 80 399 71 q 478 107 454 89 q 521 153 503 125 q 542 219 539 182 q 528 290 544 261 q 469 318 511 318 z "},"ா":{"ha":731,"x_min":111,"x_max":768,"o":"m 768 700 l 760 604 l 614 604 l 558 0 l 464 0 l 519 604 l 263 604 l 207 0 l 111 0 l 176 700 l 768 700 z "},"ி":{"ha":343,"x_min":-407,"x_max":279,"o":"m -69 1090 q 194 961 108 1090 q 257 582 279 832 l 201 0 l 107 0 l 161 582 q 119 893 181 794 q -74 992 58 992 q -162 978 -121 992 q -234 940 -203 964 q -284 881 -265 915 q -307 807 -303 847 q -281 682 -314 738 l -310 682 q -382 747 -357 701 q -400 851 -407 793 q -370 945 -396 901 q -301 1022 -344 989 q -199 1072 -258 1054 q -69 1090 -140 1090 z "},"ீ":{"ha":572,"x_min":128,"x_max":626,"o":"m 410 1138 q 502 1121 461 1138 q 571 1077 543 1104 q 613 1015 599 1050 q 622 940 626 979 q 568 828 615 869 q 451 786 521 786 q 349 827 382 786 q 324 924 317 868 q 389 1053 332 996 q 328 1034 357 1049 q 278 997 300 1019 q 241 943 256 974 q 224 875 226 913 q 317 699 211 764 l 275 689 q 166 768 204 711 q 135 900 128 825 q 163 993 139 950 q 223 1069 186 1036 q 308 1119 260 1101 q 410 1138 356 1138 m 436 1054 q 403 1000 417 1028 q 388 944 390 972 q 401 885 385 908 q 450 863 417 863 q 505 887 482 863 q 531 944 528 911 q 508 1017 535 988 q 436 1054 481 1046 z "},"ு":{"ha":533,"x_min":-103,"x_max":579,"o":"m 360 285 q 281 303 314 285 q 226 351 247 321 q 197 422 206 382 q 193 506 189 463 l 203 604 l -103 604 l -94 700 l 368 700 q 524 647 468 700 q 571 494 579 594 q 549 411 567 450 q 504 344 532 372 q 440 301 476 317 q 360 285 403 285 m 290 604 l 281 496 q 297 402 275 433 q 361 371 318 371 q 437 405 406 371 q 474 492 468 439 q 358 604 482 604 l 290 604 z "},"ூ":{"ha":888,"x_min":-162,"x_max":893,"o":"m 586 917 q 715 888 656 917 q 814 804 774 858 q 874 674 854 750 q 883 506 893 599 q 841 323 875 407 q 751 176 807 239 q 615 78 694 114 q 435 43 535 43 q 202 117 301 43 q 56 339 103 192 l 125 390 q 248 196 168 253 q 439 139 328 139 q 576 165 515 139 q 682 240 638 192 q 753 356 726 289 q 788 506 779 424 q 781 640 794 581 q 740 739 768 699 q 669 801 711 779 q 578 822 628 822 q 465 790 515 822 q 382 700 414 757 l 451 700 q 606 649 551 700 q 651 503 660 597 q 630 422 647 460 q 585 356 613 385 q 522 312 558 328 q 442 296 486 296 q 362 314 396 296 q 307 363 328 332 q 278 433 286 393 q 274 515 269 472 l 282 604 l -162 604 l -151 700 l 297 700 q 408 858 331 800 q 586 917 485 917 m 361 507 q 378 413 356 444 q 443 381 400 381 q 517 415 486 381 q 551 501 547 449 q 442 608 564 608 l 371 608 l 361 507 z "},"ெ":{"ha":992,"x_min":100,"x_max":957,"o":"m 701 1090 q 894 1003 832 1090 q 942 756 957 917 l 871 0 l 776 0 l 849 756 q 846 865 854 819 q 817 938 838 910 q 764 978 796 965 q 692 992 732 992 q 540 947 619 992 q 390 823 460 901 q 271 638 321 744 q 210 410 221 532 q 209 285 203 339 q 231 191 215 231 q 269 126 247 151 q 318 86 292 100 q 310 154 311 118 q 319 226 310 190 q 344 297 328 264 q 385 356 361 331 q 442 395 410 381 q 514 410 475 410 q 633 356 593 410 q 664 219 672 303 q 638 127 660 169 q 580 53 615 85 q 497 5 544 22 q 393 -12 449 -12 q 278 16 333 -12 q 182 100 222 44 q 121 239 142 156 q 111 432 100 322 q 178 687 124 567 q 313 897 232 807 q 494 1038 393 986 q 701 1090 594 1090 m 493 318 q 413 276 444 318 q 371 181 381 235 q 374 75 363 124 q 404 71 390 71 q 453 80 426 71 q 503 108 479 89 q 543 154 526 126 q 564 219 560 182 q 551 290 568 261 q 493 318 533 318 z "},"ே":{"ha":796,"x_min":99,"x_max":826,"o":"m 586 1090 q 688 1072 643 1090 q 765 1024 733 1054 q 811 953 796 993 q 822 868 826 913 q 762 741 815 788 q 632 694 708 694 q 566 707 594 694 q 519 742 538 719 q 492 792 500 764 q 486 854 483 821 q 512 939 490 899 q 565 1013 533 979 q 454 969 513 1006 q 346 871 396 932 q 259 725 296 810 q 213 539 222 640 q 217 358 203 435 q 260 226 231 281 q 328 140 289 172 q 408 90 368 107 q 411 235 394 161 q 480 365 428 314 q 610 415 532 415 q 678 400 649 415 q 728 358 708 385 q 756 297 747 332 q 761 219 765 261 q 734 127 757 169 q 674 53 711 85 q 590 5 638 22 q 490 -12 543 -12 q 345 22 418 -12 q 216 126 272 57 q 129 299 160 196 q 111 539 99 403 q 167 761 122 660 q 277 935 211 863 q 423 1049 343 1008 q 586 1090 503 1090 m 460 185 q 456 129 456 157 q 461 78 457 101 q 474 74 467 75 q 489 72 482 74 q 518 74 503 72 q 549 82 533 76 q 623 131 592 96 q 661 219 654 167 q 647 294 665 265 q 588 324 628 324 q 541 312 563 324 q 503 281 519 300 q 475 236 486 261 q 460 185 464 211 m 729 869 q 698 963 733 928 q 610 1008 663 999 q 571 943 586 979 q 551 875 556 907 q 569 799 547 828 q 631 769 590 769 q 697 795 669 769 q 729 869 724 821 z "},"ை":{"ha":1482,"x_min":88,"x_max":1439,"o":"m 610 713 q 774 686 697 713 q 914 613 851 660 q 1031 685 968 658 q 1164 713 1094 713 q 1282 685 1229 713 q 1370 610 1335 658 q 1422 495 1406 563 q 1431 349 1439 428 q 1379 162 1422 257 q 1256 -12 1336 67 l 1174 25 q 1291 190 1256 110 q 1335 351 1326 271 q 1331 456 1340 407 q 1298 541 1321 504 q 1239 599 1275 578 q 1156 619 1203 619 q 1064 602 1110 619 q 978 553 1018 585 q 1069 403 1039 486 q 1090 226 1099 319 q 1067 129 1085 174 q 1020 53 1049 85 q 956 5 992 22 q 878 -12 919 -12 q 804 5 838 -12 q 749 53 771 22 q 716 129 726 85 q 711 226 706 174 q 753 393 718 310 q 846 544 789 476 q 732 598 794 579 q 600 617 669 617 q 449 592 521 617 q 322 523 378 567 q 230 419 265 479 q 188 288 194 358 q 208 153 179 201 q 285 85 236 104 q 272 133 274 108 q 271 182 269 158 q 293 272 276 231 q 336 344 310 314 q 397 392 363 375 q 472 410 432 410 q 535 395 507 410 q 583 355 564 381 q 610 294 601 329 q 614 219 618 260 q 589 128 610 171 q 535 55 568 86 q 456 6 501 24 q 358 -12 411 -12 q 249 10 300 -12 q 163 74 199 33 q 107 174 126 115 q 94 303 88 232 q 142 463 101 388 q 251 593 183 538 q 410 681 319 649 q 610 713 501 713 m 1003 226 q 985 371 1010 304 q 913 490 961 438 q 835 368 865 436 q 797 226 804 300 q 817 119 790 157 q 885 81 843 81 q 963 119 929 81 q 1003 226 996 157 m 458 318 q 411 306 432 318 q 374 273 390 293 q 349 226 358 253 q 335 172 339 200 q 339 72 326 117 q 348 72 343 71 q 356 72 353 72 q 392 75 369 71 q 437 91 414 79 q 479 121 460 103 q 513 164 499 139 q 529 219 526 189 q 516 290 533 261 q 458 318 499 318 z "},"ௌ":{"ha":2996,"x_min":100,"x_max":3014,"o":"m 1178 585 q 1238 622 1206 608 q 1307 642 1271 636 q 1308 591 1307 617 q 1308 540 1308 565 q 1265 529 1286 538 q 1226 506 1243 521 l 1178 585 m 1067 400 q 1090 473 1074 439 q 1129 535 1107 507 l 1193 474 q 1171 434 1181 454 q 1156 390 1161 414 l 1067 400 m 1371 642 q 1434 622 1404 636 q 1488 585 1464 607 l 1424 503 q 1390 527 1408 518 q 1350 539 1371 536 l 1371 642 m 1526 535 q 1564 399 1564 474 l 1471 386 q 1466 432 1471 413 q 1450 469 1461 451 l 1526 535 m 1442 142 q 1383 106 1415 121 q 1317 88 1350 90 l 1313 186 q 1394 221 1358 194 l 1442 142 m 1557 328 q 1493 193 1542 249 l 1426 254 q 1467 340 1456 292 l 1557 328 m 1094 194 q 1058 331 1061 251 l 1150 343 q 1172 257 1151 296 l 1094 194 m 1251 88 q 1188 107 1217 92 q 1135 144 1158 122 l 1200 222 q 1271 188 1231 194 l 1251 88 m 701 1090 q 894 1003 832 1090 q 942 756 957 917 l 871 0 l 776 0 l 849 756 q 846 865 854 819 q 817 938 838 910 q 764 978 796 965 q 692 992 732 992 q 540 947 619 992 q 390 823 460 901 q 271 638 321 744 q 210 410 221 532 q 209 285 203 339 q 231 191 215 231 q 269 126 247 151 q 318 86 292 100 q 310 154 311 118 q 319 226 310 190 q 344 297 328 264 q 385 356 361 331 q 442 395 410 381 q 514 410 475 410 q 633 356 593 410 q 664 219 672 303 q 638 127 660 169 q 580 53 615 85 q 497 5 544 22 q 393 -12 449 -12 q 278 16 333 -12 q 182 100 222 44 q 121 239 142 156 q 111 432 100 322 q 178 687 124 567 q 313 897 232 807 q 494 1038 393 986 q 701 1090 594 1090 m 493 318 q 413 276 444 318 q 371 181 381 235 q 374 75 363 124 q 404 71 390 71 q 453 80 426 71 q 503 108 479 89 q 543 154 526 126 q 564 219 560 182 q 551 290 568 261 q 493 318 533 318 m 2124 713 q 2230 694 2183 713 q 2311 642 2276 675 q 2368 565 2346 610 q 2401 468 2390 519 l 2425 700 l 3014 700 l 3004 604 l 2860 604 l 2803 0 l 2708 0 l 2764 604 l 2503 604 l 2447 0 l 2358 0 l 2381 235 q 2374 393 2389 322 q 2326 513 2360 464 q 2240 590 2292 563 q 2125 617 2189 617 q 2006 590 2063 617 q 1906 519 1950 564 q 1833 415 1861 475 q 1799 288 1804 354 q 1819 153 1790 201 q 1896 85 1847 104 q 1888 154 1889 118 q 1894 226 1888 190 q 1920 297 1903 264 q 1963 356 1938 331 q 2019 395 1988 381 q 2089 410 2051 410 q 2208 356 2168 410 q 2240 219 2249 303 q 2214 128 2236 171 q 2156 55 2192 86 q 2072 6 2119 24 q 1969 -12 2025 -12 q 1860 10 1913 -12 q 1771 75 1808 33 q 1713 175 1733 117 q 1700 306 1693 233 q 1747 471 1708 396 q 1843 599 1785 546 q 1974 683 1901 653 q 2124 713 2046 713 m 2069 318 q 1989 276 2021 318 q 1947 181 1957 235 q 1944 126 1944 153 q 1950 75 1944 99 q 1982 71 1964 71 q 2030 80 2004 71 q 2079 108 2056 89 q 2120 154 2103 126 q 2142 219 2138 182 q 2127 290 2144 261 q 2069 318 2110 318 z "},"ௗ":{"ha":1371,"x_min":88,"x_max":1408,"o":"m 518 713 q 624 694 578 713 q 706 642 671 675 q 763 565 740 610 q 796 468 785 519 l 819 700 l 1408 700 l 1399 604 l 1254 604 l 1197 0 l 1103 0 l 1158 604 l 897 604 l 842 0 l 753 0 l 775 235 q 769 393 783 322 q 720 513 754 464 q 635 590 686 563 q 519 617 583 617 q 401 590 457 617 q 300 519 344 564 q 227 415 256 475 q 193 288 199 354 q 213 153 185 201 q 290 85 242 104 q 283 154 283 118 q 289 226 282 190 q 315 297 297 264 q 357 356 332 331 q 414 395 382 381 q 483 410 446 410 q 603 356 563 410 q 635 219 643 303 q 608 128 631 171 q 550 55 586 86 q 467 6 514 24 q 364 -12 419 -12 q 255 10 307 -12 q 165 75 203 33 q 108 175 128 117 q 94 306 88 233 q 141 471 103 396 q 238 599 179 546 q 368 683 296 653 q 518 713 440 713 m 464 318 q 383 276 415 318 q 342 181 351 235 q 339 126 339 153 q 344 75 339 99 q 376 71 358 71 q 424 80 399 71 q 474 108 450 89 q 515 154 497 126 q 536 219 532 182 q 522 290 539 261 q 464 318 504 318 z "},"ொ":{"ha":2286,"x_min":100,"x_max":2324,"o":"m 1169 585 q 1297 642 1224 631 q 1298 591 1297 617 q 1299 540 1299 565 q 1256 529 1276 538 q 1217 506 1235 521 l 1169 585 m 1057 400 q 1081 473 1064 439 q 1119 535 1097 507 l 1185 474 q 1146 390 1156 433 l 1057 400 m 1361 642 q 1424 622 1394 636 q 1478 585 1454 607 l 1414 503 q 1380 527 1399 518 q 1342 539 1361 536 l 1361 642 m 1517 535 q 1545 471 1536 506 q 1556 399 1554 436 l 1461 386 q 1456 432 1461 413 q 1440 469 1451 451 l 1517 535 m 1433 142 q 1373 106 1406 121 q 1307 88 1340 90 l 1304 186 q 1385 221 1351 194 l 1433 142 m 1547 328 q 1483 193 1532 249 l 1418 254 q 1442 295 1433 274 q 1457 340 1451 317 l 1547 328 m 1086 194 q 1060 257 1069 222 q 1050 331 1050 292 l 1140 343 q 1163 257 1142 296 l 1086 194 m 1243 88 q 1178 107 1208 92 q 1126 144 1149 122 l 1192 222 q 1263 188 1219 194 l 1243 88 m 701 1090 q 894 1003 832 1090 q 942 756 957 917 l 871 0 l 776 0 l 849 756 q 846 865 854 819 q 817 938 838 910 q 764 978 796 965 q 692 992 732 992 q 540 947 619 992 q 390 823 460 901 q 271 638 321 744 q 210 410 221 532 q 209 285 203 339 q 231 191 215 231 q 269 126 247 151 q 318 86 292 100 q 310 154 311 118 q 319 226 310 190 q 344 297 328 264 q 385 356 361 331 q 442 395 410 381 q 514 410 475 410 q 633 356 593 410 q 664 219 672 303 q 638 127 660 169 q 580 53 615 85 q 497 5 544 22 q 393 -12 449 -12 q 278 16 333 -12 q 182 100 222 44 q 121 239 142 156 q 111 432 100 322 q 178 687 124 567 q 313 897 232 807 q 494 1038 393 986 q 701 1090 594 1090 m 493 318 q 413 276 444 318 q 371 181 381 235 q 374 75 363 124 q 404 71 390 71 q 453 80 426 71 q 503 108 479 89 q 543 154 526 126 q 564 219 560 182 q 551 290 568 261 q 493 318 533 318 m 2324 700 l 2315 604 l 2169 604 l 2114 0 l 2019 0 l 2075 604 l 1818 604 l 1763 0 l 1667 0 l 1732 700 l 2324 700 z "},"ோ":{"ha":2146,"x_min":99,"x_max":2183,"o":"m 1018 585 q 1146 642 1072 631 q 1147 591 1146 617 q 1147 540 1147 565 q 1104 529 1125 538 q 1065 506 1083 521 l 1018 585 m 906 400 q 929 473 913 439 q 968 535 946 507 l 1033 474 q 994 390 1004 433 l 906 400 m 1210 642 q 1273 622 1243 636 q 1326 585 1303 607 l 1263 503 q 1228 527 1247 518 q 1190 539 1210 536 l 1210 642 m 1365 535 q 1403 399 1403 474 l 1310 386 q 1305 432 1310 413 q 1289 469 1300 451 l 1365 535 m 1282 142 q 1222 106 1254 121 q 1156 88 1189 90 l 1153 186 q 1233 221 1200 194 l 1282 142 m 1396 328 q 1332 193 1381 249 l 1267 254 q 1306 340 1294 293 l 1396 328 m 935 194 q 908 257 918 222 q 899 331 899 292 l 989 343 q 1011 257 990 296 l 935 194 m 1092 88 q 1027 107 1057 92 q 975 144 997 122 l 1040 222 q 1111 188 1068 194 l 1092 88 m 586 1090 q 688 1072 643 1090 q 765 1024 733 1054 q 811 953 796 993 q 822 868 826 913 q 762 741 815 788 q 632 694 708 694 q 566 707 594 694 q 519 742 538 719 q 492 792 500 764 q 486 854 483 821 q 512 939 490 899 q 565 1013 533 979 q 454 969 513 1006 q 346 871 396 932 q 259 725 296 810 q 213 539 222 640 q 217 358 203 435 q 260 226 231 281 q 328 140 289 172 q 408 90 368 107 q 411 235 394 161 q 480 365 428 314 q 610 415 532 415 q 678 400 649 415 q 728 358 708 385 q 756 297 747 332 q 761 219 765 261 q 734 127 757 169 q 674 53 711 85 q 590 5 638 22 q 490 -12 543 -12 q 345 22 418 -12 q 216 126 272 57 q 129 299 160 196 q 111 539 99 403 q 167 761 122 660 q 277 935 211 863 q 423 1049 343 1008 q 586 1090 503 1090 m 460 185 q 456 129 456 157 q 461 78 457 101 q 474 74 467 75 q 489 72 482 74 q 518 74 503 72 q 549 82 533 76 q 623 131 592 96 q 661 219 654 167 q 647 294 665 265 q 588 324 628 324 q 541 312 563 324 q 503 281 519 300 q 475 236 486 261 q 460 185 464 211 m 729 869 q 698 963 733 928 q 610 1008 663 999 q 571 943 586 979 q 551 875 556 907 q 569 799 547 828 q 631 769 590 769 q 697 795 669 769 q 729 869 724 821 m 2183 700 l 2176 604 l 2029 604 l 1974 0 l 1879 0 l 1935 604 l 1678 604 l 1622 0 l 1526 0 l 1593 700 l 2183 700 z "}}}
